<?xml version="1.0" encoding="UTF-8"?>
<svg width="63.649mm" height="27.767mm" version="1.1" viewBox="0 0 63.649 27.767" xmlns="http://www.w3.org/2000/svg" xmlns:cc="http://creativecommons.org/ns#" xmlns:dc="http://purl.org/dc/elements/1.1/" xmlns:rdf="http://www.w3.org/1999/02/22-rdf-syntax-ns#">
 <metadata>
  <rdf:RDF>
   <cc:Work rdf:about="">
    <dc:format>image/svg+xml</dc:format>
    <dc:type rdf:resource="http://purl.org/dc/dcmitype/StillImage"/>
    <dc:title/>
   </cc:Work>
  </rdf:RDF>
 </metadata>
 <defs>
  <linearGradient id="linearGradient410" x2="1" gradientTransform="matrix(-2.4694e-7 5.2982 -5.2982 -2.4694e-7 31.823 12.511)" gradientUnits="userSpaceOnUse">
   <stop stop-color="#f2f2f2" offset="0"/>
   <stop stop-color="#ebebeb" offset="1"/>
  </linearGradient>
 </defs>
 <g stroke-width=".26458">
  <path d="m0.90674 21.449s0.14711 1.0294 1.2936 1.1465c1.1465 0.11783 7.6138 0.0882 10.201 0.0882h43.214c0.97014 0 6.7616-1.5578 7.1143-1.8813 0.35276-0.3235 0.67592-0.94085 0.82303-2.0874 0.14711-1.1465 0.10301-2.8297 0-3.3588-0.10266-0.52916-0.54363-0.61735-0.63182-1.5212-0.088192-0.90415 0.095249-4.4759-1.2202-6.7026-1.3155-2.227-4.314-5.358-4.7992-5.4681-0.48506-0.11042-8.312-1.7861-17.264-1.6538s-11.973 0.90415-15.632 2.4694c-3.6599 1.5656-10.495 6.0853-10.892 6.3499s-7.2318 2.0891-9.1058 3.2715c-1.8743 1.1821-2.9842 3.6515-3.1017 3.6957-0.11747 0.0441-0.82303 0.66145-0.88933 0.94825-0.065968 0.28646 0.014816 2.4842 0.88933 4.7034" fill="#ebebeb"/>
  <path d="m34.958 10.919c0.01622 0.34184-0.55244 0.64663-1.2703 0.68016-0.71754 0.03422-1.312-0.21554-1.3282-0.55739-0.01622-0.34184 0.5521-0.64629 1.27-0.6805 0.71788-0.03351 1.3123 0.21625 1.3285 0.55774" fill="#d1d1d1"/>
  <path d="m35.384 10.9c0.0085 0.17427-0.75741 0.35242-1.7102 0.39721-0.95283 0.04516-1.7318-0.05997-1.7399-0.23424-0.0085-0.17427 0.75741-0.35242 1.7099-0.39721 0.9532-0.0448 1.7325 0.05997 1.7402 0.23424" fill="#fff"/>
  <path d="m52.598 10.175c0.01622 0.34184-0.55244 0.64663-1.2703 0.68016-0.71754 0.03422-1.312-0.21555-1.3282-0.55739-0.01622-0.34184 0.5521-0.64629 1.27-0.6805 0.71788-0.033514 1.3123 0.21625 1.3285 0.55773" fill="#d1d1d1"/>
  <path d="m53.024 10.157c0.0085 0.17427-0.75741 0.35242-1.7102 0.39721-0.95283 0.04516-1.7318-0.05997-1.7399-0.23424-0.0085-0.17427 0.75741-0.35242 1.7099-0.39721 0.9532-0.044804 1.7325 0.05997 1.7402 0.23424" fill="#fff"/>
  <path d="m1.2311 15.276c-0.18027 0.30586-0.29175 0.50834-0.32419 0.52069-0.11747 0.0441-0.82337 0.66145-0.88933 0.94791-0.065968 0.2868 0.014816 2.4846 0.88933 4.704 0 0 0.14675 1.0294 1.2933 1.1465 1.1465 0.11782 7.6138 0.08784 10.201 0.08784h43.214c0.97014 0 6.7613-1.5575 7.114-1.881 0.35314-0.3235 0.67592-0.94085 0.82337-2.0877 0.14711-1.1465 0.10301-2.8292 0-3.3583-0.10266-0.52916-0.54398-0.61734-0.63216-1.5215-0.02928-0.29985-0.02928-0.89711-0.0635-1.6386z" fill="url(#linearGradient410)"/>
  <path d="m3.5401 12.437h1.6002c0.18097 0 7.2939-2.372 7.6106-2.5382 0.26246-0.13758 0.48365-0.49246 0.39335-1.0904-0.01024 0.00706-0.02328 0.015531-0.02999 0.020108-0.024 0.015875-0.07196 0.037396-0.13934 0.064206 0.04692 0.40605-0.05962 0.72106-0.30586 0.84983-0.28291 0.14816-7.255 2.4786-7.5289 2.5181h-1.3652c-0.08008 0.0568-0.15804 0.11571-0.23495 0.17639" fill="#d1d1d1"/>
  <path d="m54.061 10.519c-0.19438 0.77681-0.92709 3.4499-2.1911 5.2326-1.1797 1.6633-1.929 3.1242-2.5064 4.3341-0.64663 1.3546-1.3035 1.5374-1.8605 1.5374h-10.442c-0.05257-0.76093-0.4392-6.6685-0.11218-10.272 0.16757-1.8492 0.45119-3.5454 0.72566-5.1858 0.30691-1.8351 0.59583-3.5718 0.73694-5.4982 2.4472-0.055739 4.7466-0.028575 6.1467 0.054678 0.21907 0.013044 0.46283 0.0254 0.72318 0.038806 1.8224 0.094542 4.5762 0.23706 5.5078 0.88616 1.0096 0.70344 2.3798 2.7519 3.0543 4.5664 0.49212 1.3236 0.57149 2.8932 0.21766 4.3063m-3.171-9.0177c-0.97294-0.67767-3.647-0.81596-5.5996-0.91722-0.26-0.013414-0.50305-0.026114-0.72212-0.038806-3.2726-0.19402-11.45-0.084314-14.987 0.67767-3.4292 0.73905-3.6755 1.9886-3.6843 2.0415l0.17392 0.029987c0.0021-0.011986 0.26-1.1906 3.5475-1.899 1.9755-0.42544 5.407-0.64698 8.6158-0.72495-0.14111 1.9117-0.42828 3.6396-0.73342 5.4652-0.27482 1.6436-0.55914 3.3432-0.72741 5.1993-0.32668 3.5991 0.05538 9.4786 0.11077 10.288h-16.339c-0.03775 0-0.08078 0.0024-0.12735 6e-3 -0.29633 0.01905-0.51045 0.01024-0.56514-0.28646-0.71048-3.8811-0.95778-7.3318-0.66111-9.2299 0.28469-1.8228 1.2834-2.7027 1.2933-2.7112l-0.115-0.13369c-0.04269 0.037041-1.0569 0.92674-1.3525 2.8175-0.2995 1.917-0.05221 5.3892 0.66179 9.2886 0.0695 0.37922 0.34853 0.4378 0.58454 0.4378 0.05927 0 0.11606-0.0035 0.1658-0.0071 0.04233-0.0028 0.08149-0.0053 0.11571-0.0053h26.958c0.86782 0 1.4718-0.48966 2.0196-1.6376 0.57432-1.2033 1.3194-2.6556 2.4913-4.3084 1.282-1.808 2.0221-4.5076 2.2182-5.2919 0.36229-1.4467 0.2808-3.0543-0.22331-4.4102-0.61065-1.6429-1.9445-3.8311-3.1189-4.65" fill="#d1d1d1"/>
  <path d="m12.401 22.682h5.1456c0.01553-0.18415 0.02857-0.37007 0.02857-0.55845 0-3.6533-2.9614-6.6145-6.6145-6.6145-3.6531 0-6.6145 2.9612-6.6145 6.6145 0 0.18274 0.0127 0.3616 0.027164 0.54046 2.4571 0.03246 6.2049 0.01799 8.0276 0.01799" fill="#a1a1a1"/>
  <path d="m62.554 20.899c-0.57573-3.0662-3.2628-5.3876-6.4962-5.3876-3.6531 0-6.6145 2.9609-6.6145 6.6145 0 0.18838 0.0127 0.37393 0.02822 0.55845h6.1454c0.89568 0 5.8946-1.3264 6.9373-1.7854" fill="#a1a1a1"/>
  <path d="m16.605 22.124c0 3.1175-2.5273 5.6443-5.6443 5.6443-3.117 0-5.6443-2.5269-5.6443-5.6443s2.5273-5.6443 5.6443-5.6443c3.117 0 5.6443 2.5269 5.6443 5.6443" fill="#404040"/>
  <path d="m14.819 22.124c0 2.1304-1.7272 3.8576-3.8576 3.8576-2.1307 0-3.8576-1.7272-3.8576-3.8576 0-2.1307 1.7268-3.8576 3.8576-3.8576 2.1304 0 3.8576 1.7268 3.8576 3.8576" fill="#efefef"/>
  <path d="m61.702 22.124c0 3.1175-2.5273 5.6443-5.6443 5.6443s-5.6443-2.5269-5.6443-5.6443 2.5273-5.6443 5.6443-5.6443 5.6443 2.5269 5.6443 5.6443" fill="#404040"/>
  <path d="m59.914 22.124c0 2.1304-1.7272 3.8576-3.8576 3.8576-2.1307 0-3.8576-1.7272-3.8576-3.8576 0-2.1307 1.7268-3.8576 3.8576-3.8576 2.1304 0 3.8576 1.7268 3.8576 3.8576" fill="#efefef"/>
  <path d="m53.41 6.4843c-0.58808-1.2347-1.9992-4.3508-3.9393-4.6743-1.0922-0.18203-5.3405-0.65264-10.393-0.65722-0.1905-2.646e-4 -0.27127 0.098778-0.29315 0.24553-0.02222 0.14711-0.64698 6.6293-0.69108 7.1878-0.0441 0.55845 0.49918 0.54609 0.49918 0.54609 7.2656-0.25823 14.228-0.50199 14.523-0.50199 0.58771 0 0.88192-0.91121 0.29387-2.1459" fill="#4f4f4f"/>
  <path d="m36.406 8.8523c0.0441-0.22048 1.0583-6.4674 1.1317-6.9672 0.07373-0.49812 0.19014-0.71931-0.20284-0.71296-3.453 0.073376-7.1418 0.38912-10.38 1.1687-2.5022 0.60218-7.1437 3.5864-8.6721 4.6153-1.5286 1.029-3.557 2.4401-3.1456 2.7633 0.41169 0.3235 3.9983 0.11783 7.1437 0 1.3726-0.051151 7.3077-0.26492 13.611-0.48929 0.25082-0.00918 0.47095-0.15734 0.51506-0.37782" fill="#4f4f4f"/>
  <path d="m61.702 7.1325c-1.0975-1.8581-3.362-4.3388-4.3656-5.176-0.15663 0.25294-0.2995 0.59549-0.12488 0.83218 0.30868 0.41909 1.5434 1.7201 2.7117 3.175 1.1687 1.4552 1.4552 2.117 1.6757 2.2493 0.12171 0.073024 0.41063 0.19861 0.6678 0.20531-0.14852-0.45542-0.33231-0.89216-0.5648-1.2859" fill="#d1114d"/>
  <path d="m62.517 13.099c0.03316 0.4773-0.32702 0.86359-0.80398 0.86359-0.47696 0-0.89039-0.38629-0.9232-0.86359l-0.13793-1.9988c-0.03281-0.4773 0.32736-0.86359 0.80398-0.86359 0.4773 0 0.89039 0.38629 0.9232 0.86359z" fill="#f26914"/>
  <path d="m4.8019 12.797c-0.075847-0.04551-1.0583-0.02858-1.6651-0.01342-1.0283 0.96201-1.7311 2.1914-2.0478 2.7336 1.0971 0.08396 1.9512-0.24765 2.28-0.38311 0.37465-0.15452 1.1243-0.83784 1.433-1.3889 0.30869-0.55138 0.11007-0.8823 0-0.94825" fill="#ffb073"/>
  <path d="m3.1311 20.896-0.31009-1.3222c-0.094542-0.40394-0.49847-0.73096-0.9024-0.73096h-1.7339c0.13617 0.77646 0.36054 1.688 0.72212 2.6049 0 0 0.010935 0.07267 0.046566 0.17921h1.6182c0.40356 0 0.65439-0.32702 0.55951-0.73096" fill="#4f4f4f"/>
 </g>
 <circle cx="56.1" cy="22.1" r="2.6458" fill="none" stroke="#000" stroke-dasharray="1.38905" stroke-width="1.8521">
  <animateTransform attributeName="transform" begin="0s" dur="1s" from="0 56.1 22.1" repeatCount="indefinite" to="-60 56.1 22.1" type="rotate"/>
 </circle>
 <circle cx="10.95" cy="22.1" r="2.6458" fill="none" stroke="#000" stroke-dasharray="1.38905" stroke-width="1.8521">
  <animateTransform attributeName="transform" begin="0s" dur="1s" from="0 10.95 22.1" repeatCount="indefinite" to="-60 10.95 22.1" type="rotate"/>
 </circle>
</svg>
