<?xml version="1.0" encoding="UTF-8"?>
<svg width="64.323mm" height="28.226mm" version="1.1" viewBox="0 0 64.323 28.226" xmlns="http://www.w3.org/2000/svg" xmlns:cc="http://creativecommons.org/ns#" xmlns:dc="http://purl.org/dc/elements/1.1/" xmlns:rdf="http://www.w3.org/1999/02/22-rdf-syntax-ns#">
 <metadata>
  <rdf:RDF>
   <cc:Work rdf:about="">
    <dc:format>image/svg+xml</dc:format>
    <dc:type rdf:resource="http://purl.org/dc/dcmitype/StillImage"/>
    <dc:title/>
   </cc:Work>
  </rdf:RDF>
 </metadata>
 <defs>
  <linearGradient id="linearGradient498" x2="1" gradientTransform="matrix(-3.8806e-7 9.1719 -9.1719 -3.8806e-7 32.16 13.442)" gradientUnits="userSpaceOnUse">
   <stop stop-color="#bde2ff" offset="0"/>
   <stop stop-color="#9ed5ff" offset="1"/>
  </linearGradient>
 </defs>
 <g stroke-width=".26458">
  <path d="m0.23278 18.321v2.4105c0 0.38205-0.23495 0.47061-0.23495 0.85266 0 0.38205 0.73519 1.5875 1.4993 1.6757 0.76411 0.08819 13.082 1.0287 13.876 1.0287h37.467s10.159-1.1169 10.364-1.2933c0.20602-0.17639 1.1176-2.5576 1.1176-3.5276 0-0.97014-0.14746-3.4102-0.29421-3.8512-0.14675-0.44098-0.08819-7.9964-0.44098-8.261-0.35276-0.26458-6.0853-6.0263-6.6145-6.3793-0.52916-0.35295-13.582-1.029-17.815-0.97014-4.2333 0.058911-9.2603 0.47061-11.23 1.2351-1.9692 0.76411-4.8209 2.0577-7.349 3.6745-2.5287 1.6168-5.6152 3.8806-6.3796 4.0864-0.76445 0.20531-3.7338 0.58771-6.5851 1.4697-2.8514 0.88192-3.7335 1.367-4.3656 2.0285-0.63216 0.66145-1.2495 1.4993-1.4259 1.6316s-0.69074 0.29387-0.77892 0.58771c-0.088192 0.29421-0.33795 2.3375-0.36758 2.5872-0.028929 0.24976-0.44098 0.55879-0.44098 1.0142" fill="#9ed5ff"/>
  <path d="m0.81221 16.212c-0.067381 0.51223-0.12453 0.98212-0.13758 1.0936-0.028929 0.24976-0.44098 0.55879-0.44098 1.0146v2.4101c0 0.38205-0.23495 0.47061-0.23495 0.85301 0 0.38205 0.73519 1.5875 1.4989 1.6753 0.76445 0.08819 13.082 1.0287 13.876 1.0287h37.467s10.159-1.1165 10.364-1.2933c0.20637-0.17639 1.1176-2.5576 1.1176-3.5276 0-0.97014-0.14711-3.4099-0.29387-3.851-0.04445-0.1337-0.07056-0.91897-0.09384-1.9554z" fill="url(#linearGradient498)"/>
  <path d="m17.642 24.29c0.14358-0.54504 0.22789-1.1141 0.22789-1.7046 0-3.689-2.9905-6.6793-6.6793-6.6793-3.6888 0-6.6799 2.9905-6.6799 6.6793 0 0.31609 0.029633 0.62475 0.07232 0.92955 3.9274 0.30657 10.229 0.77504 10.79 0.77504z" fill="#6d93b0"/>
  <path d="m56.287 15.905c-3.689 0-6.6793 2.9905-6.6793 6.6793 0 0.5902 0.08431 1.1596 0.22824 1.7046h3.0035s8.4994-0.9345 10.103-1.2287c0.0113-0.15769 0.02434-0.31538 0.02434-0.4759 0-3.689-2.9908-6.6793-6.6799-6.6793" fill="#6d93b0"/>
  <path d="m16.835 22.583c0 3.1175-2.5269 5.6443-5.6443 5.6443-3.1175 0-5.6443-2.5269-5.6443-5.6443s2.5269-5.6443 5.6443-5.6443c3.1175 0 5.6443 2.5269 5.6443 5.6443" fill="#404040"/>
  <path d="m14.965 9.3806c-0.08819 0.28646-2.9358 2.3456-3.8055 2.6831-0.82232 0.31961-6.2705 1.3134-7.0135 1.4227l-0.19614 0.02928c-0.5295 0.08043-1.1507 0.17286-1.6834 0.11642-0.047624 0.05715-0.092426 0.11077-0.13441 0.16122 0.15487 0.02328 0.31644 0.03422 0.48225 0.03422 0.45614 0 0.93839-0.07302 1.3624-0.13723l0.19473-0.02928c0.76551-0.11289 6.1978-1.101 7.0524-1.433 0.81842-0.31784 3.7816-2.3809 3.9097-2.7958 0.06421-0.20778-0.17956-0.44344-0.46918-0.64063-0.06597 0.035983-0.12594 0.06632-0.18309 0.093836 0.30234 0.19473 0.51612 0.38981 0.48365 0.49495" fill="#5fa2d6" opacity=".60001"/>
  <path d="m57.123 12.235c-0.34149 0.92391-1.7568 1.6245-3.3961 2.4355-0.69532 0.34395-1.4136 0.69955-2.1212 1.1052-2.1815 1.2506-3.1324 4.577-3.4895 5.8292-0.04374 0.1524-0.07902 0.27622-0.10724 0.36441-0.29773 0.92532-1.4062 0.99694-1.7392 0.99694h-9.4833c-0.03598-0.98458-0.37041-10.958 0.51469-14.471 0.85406-3.3898 0.93415-6.8079 0.94156-7.3873 0.64769-0.00987 1.2672-0.013044 1.8397-0.013044h0.60925c2.0598 0 11.548 0.37147 12.288 0.57043 0.67661 0.18203 2.6091 3.4734 3.4123 5.1127 0.72424 1.4792 1.2019 4.1857 0.7313 5.4575m-36.724 10.731c-0.46426 0-0.53305-0.43743-0.64558-1.4277-0.01622-0.14322-0.03316-0.29633-0.05362-0.45754-0.1531-1.2245-0.63745-5.4522-0.44026-8.4274 0.1337-2.0164 0.5281-3.2128 0.78951-4.0039 0.12524-0.37994 0.22401-0.68016 0.24659-0.93309 0.01236-0.13864 0.01765-0.26529 0.02294-0.38205 0.02223-0.514 0.03457-0.79692 0.55914-1.1864 0.871-0.64629 4.8439-3.2445 8.3695-4.1526 2.5163-0.64769 5.938-0.83607 8.8179-0.88547-0.0074 0.58771-0.08855 3.9782-0.93627 7.3413-0.88899 3.5292-0.55739 13.491-0.5207 14.515zm32.625-21.471c-0.77469-0.20884-10.215-0.57678-12.333-0.57678h-0.60925c-3.1578 0-7.7202 0.093836-10.878 0.90664-3.5536 0.9151-7.554 3.5313-8.4306 4.1822-0.59194 0.4392-0.60782 0.80856-0.63041 1.3204-0.0049 0.1143-0.01024 0.23812-0.02223 0.37393-0.02045 0.23283-0.11712 0.52421-0.23847 0.89322-0.26387 0.79975-0.66322 2.0083-0.79797 4.0478-0.19826 2.9908 0.28752 7.2326 0.44132 8.4613 0.01976 0.16051 0.03704 0.3122 0.05362 0.45542 0.10795 0.95389 0.17921 1.584 0.82054 1.584h25.87c0.36335 0 1.573-0.08079 1.9067-1.1194 0.02893-0.08925 0.06456-0.21519 0.10901-0.37041 0.35242-1.2333 1.2883-4.5092 3.4081-5.7242 0.70307-0.40322 1.4189-0.75741 2.1117-1.0996 1.6729-0.82832 3.1178-1.5434 3.4832-2.5329 0.53375-1.4435-0.070193-4.2322-0.73836-5.5961-0.6156-1.2569-2.6783-4.9781-3.5253-5.2056" fill="#5fa2d6" opacity=".60001"/>
  <path d="m15.049 22.583c0 2.1304-1.7268 3.8578-3.8576 3.8578-2.1307 0-3.8573-1.7275-3.8573-3.8578s1.7265-3.8576 3.8573-3.8576c2.1308 0 3.8576 1.7272 3.8576 3.8576" fill="#efefef"/>
  <path d="m61.93 22.583c0 3.1175-2.5269 5.6443-5.6443 5.6443-3.117 0-5.6443-2.5269-5.6443-5.6443s2.5273-5.6443 5.6443-5.6443c3.1175 0 5.6443 2.5269 5.6443 5.6443" fill="#404040"/>
  <path d="m60.144 22.583c0 2.1304-1.7272 3.8578-3.8578 3.8578-2.1304 0-3.8573-1.7275-3.8573-3.8578s1.7268-3.8576 3.8573-3.8576c2.1307 0 3.8578 1.7272 3.8578 3.8576" fill="#efefef"/>
  <path d="m35.951 9.3356c0.2653-0.00352 0.42791-0.133 0.52916-0.43743 0.89992-2.7043 0.97014-6.2025 1.029-6.673 0.04092-0.32879 0.03881-0.57432-0.05186-0.68897-0.03845-0.049035-0.09313-0.073728-0.16616-0.071611-4.0089 0.1464-7.5056 0.5676-8.8552 1.0911-1.1864 0.46037-4.2526 1.7279-7.0995 3.5483-0.80186 0.51294-1.6556 1.0883-2.4927 1.6552-0.60007 0.4078-1.5 1.7713-0.38383 1.7713 0.4967 0 8.5946-0.087134 17.491-0.19473" fill="#4f4f4f"/>
  <path d="m39.176 1.4167c-0.15663 0.00212-0.31186 0.00635-0.46778 0.00881-0.10301 0.051858-0.18591 0.27445-0.15487 1.1673 0.04409 1.2643-0.60253 5.5858-0.63182 6.115-0.02928 0.52845 0.23389 0.60147 0.23424 0.60147 6.3216-0.077257 12.698-0.16228 17.272-0.16228 0.66145 0 0.83396-0.52069 0.76906-0.768-0.1524-0.58067-0.34361-1.1236-0.55702-1.5596-0.60324-1.2315-1.8418-3.3901-2.7082-4.4658-0.17004-0.21131-0.94542-0.51612-1.1927-0.52704-4.3881-0.20108-9.6304-0.41346-12.014-0.41346-0.19685 0-0.37959 0.00132-0.54855 0.00352" fill="#4f4f4f"/>
  <path d="m1.3811 14.699c-0.095249 0.08643-0.57327 2.7781-0.28646 2.8445 0.28646 0.06597 2.5354-0.2868 3.0204-0.4632 0.48505-0.17639 1.4326-2.4253 1.433-2.6458 2.646e-4 -0.22048 0.022225-0.50728-0.41875-0.4632-0.44098 0.04445-3.3432 0.36123-3.7483 0.72778" fill="#fff"/>
  <path d="m1.7197 21.334c0.58454 0 1.1769-0.47378 1.3226-1.0583l0.19932-0.79975c0.1464-0.58454-0.20955-1.0583-0.79408-1.0583h-2.2147v2.3138c0 0.28223-0.12735 0.40462-0.19438 0.60253z" fill="#4f4f4f"/>
  <path d="m63.806 9.1028h-1.5578c-0.25894 0-0.45685 0.21025-0.44098 0.46955l0.3108 5.1466c0.01588 0.25893 0.23847 0.46918 0.49741 0.46918h1.3684c-0.0635-1.1271-0.08078-4.1388-0.1778-6.0853" fill="#f26914"/>
  <path d="m35.173 11.092c0.01588 0.34184-0.55244 0.64663-1.2707 0.6805-0.7172 0.03351-1.3116-0.2159-1.3282-0.55739-0.01588-0.34184 0.55244-0.64629 1.27-0.68084 0.71788-0.03387 1.3123 0.21625 1.3289 0.55774" fill="#5fa2d6"/>
  <path d="m35.599 11.071c0.0081 0.17427-0.75776 0.35242-1.7102 0.39758-0.95283 0.0448-1.7321-0.05997-1.7402-0.23424-0.0085-0.17427 0.75776-0.35242 1.7099-0.39721 0.9532-0.04516 1.7325 0.05962 1.7406 0.23389" fill="#bde2ff"/>
  <path d="m55.194 10.767c0.01588 0.34184-0.55244 0.64663-1.2707 0.6805-0.7172 0.03351-1.3116-0.2159-1.3282-0.55739-0.01588-0.34184 0.55244-0.64629 1.27-0.68084 0.71788-0.03387 1.3123 0.21625 1.3289 0.55773" fill="#5fa2d6"/>
  <path d="m55.62 10.746c0.0081 0.17427-0.75776 0.35242-1.7102 0.39758-0.95283 0.0448-1.7321-0.05997-1.7402-0.23424-0.0085-0.17427 0.75776-0.35242 1.7099-0.39721 0.9532-0.04516 1.7325 0.05962 1.7406 0.23389" fill="#bde2ff"/>
 </g>
 <circle cx="56.25" cy="22.5" r="2.6458" fill="none" stroke="#000" stroke-dasharray="1.38905" stroke-width="1.8521">
  <animateTransform attributeName="transform" begin="0s" dur="1s" from="0 56.25 22.5" repeatCount="indefinite" to="-60 56.25 22.5" type="rotate"/>
 </circle>
 <circle cx="11.18" cy="22.5" r="2.6458" fill="none" stroke="#000" stroke-dasharray="1.38905" stroke-width="1.8521">
  <animateTransform attributeName="transform" begin="0s" dur="1s" from="0 11.18 22.5" repeatCount="indefinite" to="-60 11.18 22.5" type="rotate"/>
 </circle>
</svg>
