<?xml version="1.0" encoding="UTF-8"?>
<svg width="71.563mm" height="25.358mm" version="1.1" viewBox="0 0 71.563 25.358" xmlns="http://www.w3.org/2000/svg" xmlns:cc="http://creativecommons.org/ns#" xmlns:dc="http://purl.org/dc/elements/1.1/" xmlns:rdf="http://www.w3.org/1999/02/22-rdf-syntax-ns#">
 <defs>
  <clipPath id="clipPath284">
   <path d="m261.01 247.14c-0.294-0.862-0.521-1.754-0.733-2.693-1.083-4.833-0.687-10.271-0.938-11.021-0.249-0.75-0.374-1.5 0-2.25 0.376-0.75 1.757-3.157 5.355-3.48 0 0 18.251-1.666 21.751-1.666 3.499 0 7.832 1.666 11.333 1.666h117.75c4.5 0 26.667 2.417 32.167 3.084 5.5 0.666 11.166 0.666 12.583 3.417 1.417 2.749 2.167 12.583 1.333 14.999-0.833 2.418-2 1.917-3.165 6.168-0.246 0.89-0.567 2.036-0.925 3.287z"/>
  </clipPath>
  <linearGradient id="linearGradient294" x2="1" gradientTransform="matrix(3.1665 -21.833 -21.833 -3.1665 358.03 256.87)" gradientUnits="userSpaceOnUse">
   <stop stop-color="#c7c7c7" offset="0"/>
   <stop stop-color="#a8a8a8" offset="1"/>
  </linearGradient>
 </defs>
 <metadata>
  <rdf:RDF>
   <cc:Work rdf:about="">
    <dc:format>image/svg+xml</dc:format>
    <dc:type rdf:resource="http://purl.org/dc/dcmitype/StillImage"/>
    <dc:title/>
   </cc:Work>
  </rdf:RDF>
 </metadata>
 <g transform="translate(-55.689 -95.422)">
  <g transform="translate(26.458 -3.7798)">
   <g transform="matrix(.35278 0 0 -.35278 31.203 120.39)">
    <path d="m0 0s18.25-1.666 21.75-1.666 7.833 1.666 11.333 1.666h117.75c4.5 0 26.667 2.417 32.167 3.084 5.5 0.666 11.166 0.666 12.583 3.416s2.167 12.583 1.333 15c-0.833 2.417-2 1.917-3.166 6.167-1.167 4.25-4 14.167-5 14.75s-11.334 1.25-21.667 4.916c-10.333 3.667-23.083 10.167-42 11.917s-35.917 0.75-49.75-4.333c-13.833-5.084-32.417-15.917-37.583-17-5.167-1.084-21.75-3.583-30.667-8.167-8.917-4.583-10.417-8.166-11.5-13-1.083-4.833-0.687-10.271-0.937-11.021s-0.375-1.5 0-2.25 1.756-3.157 5.354-3.479" fill="#a8a8a8"/>
   </g>
   <g transform="matrix(.35278 0 0 -.35278 -62.176 200.71)" clip-path="url(#clipPath284)">
    <path d="m261.01 247.14c-0.294-0.862-0.521-1.754-0.733-2.693-1.083-4.833-0.687-10.271-0.938-11.021-0.249-0.75-0.374-1.5 0-2.25 0.376-0.75 1.757-3.157 5.355-3.48 0 0 18.251-1.666 21.751-1.666 3.499 0 7.832 1.666 11.333 1.666h117.75c4.5 0 26.667 2.417 32.167 3.084 5.5 0.666 11.166 0.666 12.583 3.417 1.417 2.749 2.167 12.583 1.333 14.999-0.833 2.418-2 1.917-3.165 6.168-0.246 0.89-0.567 2.036-0.925 3.287z" fill="url(#linearGradient294)"/>
   </g>
   <path d="m85.459 106.9c-0.17286-0.28257-0.35101-0.54398-0.5394-0.82127-0.33972-0.49918-0.69109-1.0153-1.0449-1.7085l-0.15734 0.0804c0.35878 0.70274 0.71367 1.2238 1.0566 1.7276 0.18697 0.27481 0.36407 0.53481 0.5341 0.81385 0.51118 0.83574 0.61454 1.6718 0.28434 2.2938-0.21343 0.40075-2.0997 2.4648-3.9243 4.4605-1.3307 1.4556-2.5873 2.83-3.1873 3.55-1.3487 1.6189-2.5957 1.7544-3.6583 1.7544h-6.9017c-0.0032-0.57679-0.01976-3.9769 3.52e-4 -7.8267 0.02187-4.1734 0.4953-5.3569 0.50024-5.3682l-0.16263-0.0684c-0.01976 0.0473-0.49212 1.2111-0.514 5.4356-0.02011 3.8484-0.0035 7.2475-3.53e-4 7.8278h-16.801c-1.0206 0-1.1123-0.22965-1.2192-0.49565-0.07902-0.19826-0.3616-1.1645-0.67733-5.2878-0.28187-3.6837 0.23389-5.4405 0.23918-5.4578l0.03457-0.11395h-0.11889c-0.01482 0-0.37183 2e-3 -1.1444 0.17886-0.7172 0.16369-1.7124 0.30904-2.7848 0.44133 0.28046-0.39406 0.85443-1.215 0.92604-1.4302 0.01764-0.0526 0.01023-0.10654-0.02046-0.15593-0.04904-0.079-0.17321-0.14393-0.31962-0.1972-0.08573 0.0367-0.16933 0.0723-0.25012 0.10548 0.24977 0.0677 0.41557 0.14252 0.42263 0.19191-0.06491 0.19579-0.70132 1.1038-0.99624 1.5148-0.76835 0.0924-1.5674 0.17886-2.3273 0.26035-1.445 0.15593-2.6935 0.29034-3.206 0.41628-0.60713 0.14887-2.2292 0.68933-3.6604 1.1659-1.3409 0.44697-2.6077 0.86889-2.8123 0.89535-0.21202 0.0275-0.54716-0.1464-0.81986-0.32279-0.05468 0.0363-0.10301 0.0723-0.15522 0.10866 0.28892 0.19261 0.70661 0.42651 0.99766 0.38911 0.2219-0.0286 1.4376-0.43356 2.8455-0.90276 1.428-0.47589 3.0466-1.0149 3.6467-1.1624 0.50094-0.12277 1.7438-0.25682 3.1831-0.41169 0.7814-0.0843 1.6044-0.17322 2.3936-0.26882l0.0078 6e-3c0.0014-1e-3 0.0039-5e-3 0.0053-7e-3 1.1384-0.13829 2.2034-0.29034 2.9637-0.46426 0.50412-0.11535 0.82868-0.15416 0.98813-0.16756-0.11254 0.45437-0.46002 2.1826-0.21378 5.4017 0.30868 4.0351 0.58491 5.0789 0.68968 5.34 0.1464 0.36653 0.32173 0.60677 1.3825 0.60677h23.879c0.79622 0 2.2793 0 3.7941-1.8175 0.59725-0.71719 1.8524-2.0902 3.1817-3.544 1.832-2.0041 3.7264-4.0764 3.9497-4.4969 0.36054-0.67839 0.25506-1.5783-0.28892-2.4687" fill="#999"/>
   <g transform="matrix(.35278 0 0 -.35278 86.493 112.52)">
    <path d="m0 0c-10.011 0-18.125-8.114-18.125-18.125 0-1.437 0.185-2.827 0.501-4.167h11.729c3.182 0 15.192 1.208 23.902 2.151 0.073 0.663 0.118 1.333 0.118 2.016 0 10.011-8.114 18.125-18.125 18.125" fill="#616161"/>
   </g>
   <g transform="matrix(.35278 0 0 -.35278 42.874 120.39)">
    <path d="m0 0h13.436c0.315 1.34 0.501 2.73 0.501 4.167 0 10.011-8.116 18.125-18.125 18.125-10.011 0-18.125-8.114-18.125-18.125 0-1.795 0.269-3.524 0.755-5.161 4.389-0.358 8.703-0.672 10.225-0.672 3.5 0 7.833 1.666 11.333 1.666" fill="#616161"/>
   </g>
   <g transform="matrix(.35278 0 0 -.35278 47.041 118.92)">
    <path d="m0 0c0-8.837-7.164-16-16-16-8.837 0-16 7.163-16 16s7.163 16 16 16c8.836 0 16-7.163 16-16" fill="#404040"/>
   </g>
   <g transform="matrix(.35278 0 0 -.35278 45.254 118.92)">
    <path d="m0 0c0-6.039-4.896-10.935-10.935-10.935-6.04 0-10.935 4.896-10.935 10.935 0 6.04 4.895 10.935 10.935 10.935 6.039 0 10.935-4.895 10.935-10.935" fill="#efefef"/>
   </g>
   <g transform="matrix(.35278 0 0 -.35278 92.137 118.92)">
    <path d="m0 0c0-8.837-7.163-16-16-16s-16 7.163-16 16 7.163 16 16 16 16-7.163 16-16" fill="#404040"/>
   </g>
   <g transform="matrix(.35278 0 0 -.35278 90.35 118.92)">
    <path d="m0 0c0-6.039-4.895-10.935-10.935-10.935s-10.934 4.896-10.934 10.935c0 6.04 4.894 10.935 10.934 10.935s10.935-4.895 10.935-10.935" fill="#efefef"/>
   </g>
   <g transform="matrix(.35278 0 0 -.35278 68.252 100.09)">
    <path d="m0 0c-4.942-0.215-10.688-0.062-19.687-2-9-1.938-23.813-9.813-29.813-13.563-6-3.749-11.188-7.499-11.188-7.499s32.626 2.625 49.938 4 45.313 3.187 48.688 3.562 16.25 4 16 4.687c-0.25 0.688-22.376 12.188-53.938 10.813" fill="#4f4f4f"/>
   </g>
   <g transform="matrix(.35278 0 0 -.35278 66.672 106.29)">
    <path d="m0 0c0.621 0.047 0.571 0.264 0.728 0.857 0.156 0.594 1.854 13.761 1.95 14.344 0.095 0.584 0.071 1.312-0.387 1.298v1e-3c-0.103-3e-3 -0.197-8e-3 -0.302-0.011-4.481-0.136-9.559-0.291-16.989-1.89-9.131-1.966-24.076-10.048-29.492-13.433-1.176-0.735-2.323-1.472-3.406-2.181-1.809-1.183-1.395-2.912 0.752-2.74 10.955 0.88 29.268 2.35 40.794 3.266 1.987 0.157 4.127 0.322 6.352 0.489" fill="#404040"/>
   </g>
   <g transform="matrix(.35278 0 0 -.35278 39.522 109.1)">
    <path d="m0 0c-5.624-0.812-13-2.813-17.312-4.625-4.313-1.812-7.375-5.25-7.125-6.563 0.25-1.312 7.062 0.063 11.937 2.313s13.112 8.963 12.5 8.875" fill="#e0e0e0"/>
   </g>
   <g transform="matrix(.35278 0 0 -.35278 82.826 104.13)">
    <path d="m0 0c0 1.307-2.323 5.677-5.901 6.738-7.969 2.091-18.248 3.85-30.171 3.85-0.141 0-0.283-4e-3 -0.424-5e-3 -0.394-0.013-0.587-0.427-0.608-0.755-0.021-0.333-0.365-13.385-0.334-14.323 0.032-0.937 1.125-0.912 1.125-0.912v-1e-3c5.101 0.367 10.25 0.728 14.859 1.051 9.144 0.641 16.367 1.147 17.969 1.325 0.318 0.035 0.714 0.099 1.159 0.182 2.114 0.467 2.326 1.534 2.326 2.85" fill="#404040"/>
   </g>
   <g transform="matrix(.35278 0 0 -.35278 99.554 110.62)">
    <path d="m0 0c-0.557 2.024-1.49 5.329-2.424 8.304-0.533 0.543-1.51 1.217-3.201 1.363-2.917 0.25-15.541 0.166-15.709 0-0.166-0.167-0.041-1.459 1.917-2.375 1.855-0.869 15.04-5.551 19.538-7.707-0.04 0.138-0.081 0.267-0.121 0.415" fill="#ef3061"/>
   </g>
   <g transform="matrix(.35278 0 0 -.35278 30.413 118.5)">
    <path d="m0 0c1.652 0 3.316 1.141 3.73 2.634l0.833 3.042c0.509 1.813-0.682 3.386-2.674 3.386h-4.477c-0.558-4.113-0.316-8.057-0.526-8.687-0.042-0.125-0.073-0.25-0.106-0.375z" fill="#4f4f4f"/>
   </g>
   <g transform="matrix(.35278 0 0 -.35278 65.957 108.74)">
    <path d="m0 0c0.114-0.963-1.433-1.939-3.455-2.179-2.023-0.24-3.754 0.347-3.868 1.31s1.432 1.938 3.454 2.179c2.023 0.239 3.755-0.348 3.869-1.31" fill="#878787"/>
   </g>
   <path d="m66.38 108.69c0.02081 0.17321-0.7306 0.40499-1.6782 0.51717-0.94686 0.11254-1.7314 0.0632-1.7522-0.11042-0.02046-0.17321 0.73096-0.40499 1.6778-0.51717 0.94756-0.11218 1.7321-0.0628 1.7526 0.11042" fill="#ccc"/>
   <g transform="matrix(.35278 0 0 -.35278 83.442 107.86)">
    <path d="m0 0c0.114-0.963-1.433-1.939-3.455-2.179-2.023-0.24-3.754 0.347-3.868 1.31s1.432 1.938 3.454 2.179c2.023 0.239 3.755-0.348 3.869-1.31" fill="#878787"/>
   </g>
   <g transform="matrix(.35278 0 0 -.35278 83.865 107.81)">
    <path d="m0 0c0.059-0.491-2.071-1.148-4.757-1.466-2.684-0.319-4.908-0.179-4.967 0.313-0.058 0.491 2.072 1.148 4.756 1.466 2.686 0.318 4.91 0.178 4.968-0.313" fill="#ccc"/>
   </g>
  </g>
 </g>
</svg>
