<?xml version="1.0" encoding="UTF-8"?>
<svg width="63.655mm" height="28mm" version="1.1" viewBox="0 0 63.655 28" xmlns="http://www.w3.org/2000/svg" xmlns:cc="http://creativecommons.org/ns#" xmlns:dc="http://purl.org/dc/elements/1.1/" xmlns:rdf="http://www.w3.org/1999/02/22-rdf-syntax-ns#">
 <metadata>
  <rdf:RDF>
   <cc:Work rdf:about="">
    <dc:format>image/svg+xml</dc:format>
    <dc:type rdf:resource="http://purl.org/dc/dcmitype/StillImage"/>
    <dc:title/>
   </cc:Work>
  </rdf:RDF>
 </metadata>
 <defs>
  <linearGradient id="linearGradient70" x2="1" gradientTransform="matrix(-2.1166e-7 5.0236 -5.0236 -2.1166e-7 31.827 14.003)" gradientUnits="userSpaceOnUse">
   <stop stop-color="#ef4c76" offset="0"/>
   <stop stop-color="#ef3061" offset="1"/>
  </linearGradient>
 </defs>
 <g stroke-width=".26458">
  <path d="m1.801 23.819h59.56c0.41169 0 2.293-1.1172 2.293-2.1166v-4.8799c0-0.44098-0.73482-1.2054-0.73482-1.5582v-6.9381c0-0.26458-6.3502-7.6138-6.6145-7.6728-0.26458-0.05856-9.9956-0.76411-17.991-0.64663-7.9964 0.11747-11.054 0.9994-13.053 1.7639-1.9992 0.76445-11.495 6.6439-11.994 6.7026-0.49987 0.058914-4.6153 0.82303-6.3206 1.2347-1.705 0.41169-5.2035 1.4993-5.8792 2.7633-0.67627 1.2643-0.71296 5.5194-0.71296 7.0188 0 1.4993 0.036689 2.2563-0.15451 2.565-0.19085 0.30868-0.33054 0.69815 0 1.0841 0.33091 0.38594 0.96659 0.67979 1.6023 0.67979" fill="#ef3061"/>
  <path d="m0.60165 14.352c-0.23107 1.7685-0.24871 4.1052-0.24871 5.1368 0 1.4993 0.037041 2.2567-0.15416 2.5654-0.1912 0.30832-0.33091 0.69815 0 1.0837 0.33091 0.38594 0.96659 0.68016 1.6023 0.68016h59.56c0.41134 0 2.293-1.1172 2.293-2.1166v-4.8802c0-0.44098-0.73482-1.2054-0.73482-1.5578v-0.91121z" fill="url(#linearGradient70)"/>
  <path d="m15.383 22.347c0-3.7023-3.0011-6.7026-6.7026-6.7026-3.7017 0-6.7026 3.0003-6.7026 6.7026 0 0.50553 0.060676 0.99659 0.16686 1.47h13.072c0.10619-0.47341 0.16686-0.96447 0.16686-1.47" fill="#ab2246"/>
  <path d="m63.007 22.347c0-3.7023-3.0011-6.7026-6.7026-6.7026-3.7017 0-6.7026 3.0003-6.7026 6.7026 0 0.50553 0.06068 0.99659 0.16686 1.47h11.592c0.25012 0 1.04-0.4124 1.6235-0.95955 0.01341-0.16862 0.02294-0.33832 0.02294-0.51045" fill="#ab2246"/>
  <path d="m14.325 22.347c0 3.117-2.5273 5.6443-5.6443 5.6443-3.117 0-5.6443-2.5273-5.6443-5.6443 0-3.1175 2.5273-5.6443 5.6443-5.6443 3.117 0 5.6443 2.5269 5.6443 5.6443" fill="#404040"/>
  <path d="m12.537 22.347c0 2.1304-1.7272 3.8576-3.8576 3.8576-2.1307 0-3.8576-1.7272-3.8576-3.8576 0-2.1307 1.7268-3.8576 3.8576-3.8576 2.1304 0 3.8576 1.7268 3.8576 3.8576" fill="#efefef"/>
 </g>
 <path d="m61.949 22.347c0 3.117-2.5273 5.6443-5.6443 5.6443s-5.6443-2.5273-5.6443-5.6443c0-3.1175 2.5273-5.6443 5.6443-5.6443s5.6443 2.5269 5.6443 5.6443" fill="#404040" stroke-width=".26458"/>
 <path d="m60.163 22.347c0 2.1304-1.7272 3.8576-3.8576 3.8576-2.1307 0-3.8576-1.7272-3.8576-3.8576 0-2.1307 1.7268-3.8576 3.8576-3.8576 2.1304 0 3.8576 1.7268 3.8576 3.8576" fill="#efefef" stroke-width=".26458"/>
 <path d="m35.136 8.4041c0.40851-0.014473 0.69354-0.31466 0.73765-0.72249 0.0441-0.4078 0.83785-4.5161 0.95532-5.2366 0.11712-0.71614 0.10124-0.99516-0.18732-0.98987-6.2938 0.1972-9.0357 0.92815-10.877 1.6319-0.97966 0.37465-4.392 2.3667-7.0545 3.9282-0.76657 0.44944-0.82832 1.8902 0.49458 1.8902 0.75953 0 8.8214-0.25223 15.931-0.5013" fill="#4f4f4f" stroke-width=".26458"/>
 <path d="m50.175 1.6732c-2.9112-0.14217-6.5275-0.26987-9.9969-0.26987-0.11324 0-0.22295 0.00212-0.3362 0.00238-0.236 0.010927-0.3757 0.39547-0.3757 0.81914 0 0.43002-0.23142 4.8505-0.24236 5.2366-0.0113 0.38557 0.19791 0.78845 0.56197 0.77503 3.1927-0.11959 5.639-0.22295 6.229-0.27588 2.0062-0.17956 2.7781-0.63499 4.2626-1.5169 1.4848-0.88192 2.6606-1.6757 2.69-2.2048 0.02963-0.52916-1.4975-2.5054-2.7921-2.5657" fill="#4f4f4f" stroke-width=".26458"/>
 <g fill="#c42750" stroke-width=".26458">
  <path d="m36.835 21.437c-0.09666-0.38946-0.17992-0.72566-0.19791-0.94966-0.0575-0.71542 0.43603-6.837 0.80115-10.737 0.2547-2.7239 0.81525-6.8947 1.1017-8.9664 3.5835-0.041626 11.035 0.12876 12.475 0.33655 1.4545 0.20955 4.8926 4.6061 5.0257 5.7872 0.09913 0.88158-0.90627 3.8684-1.5716 5.8451-0.20814 0.61772-0.38734 1.1511-0.49776 1.5131-0.25506 0.83713-0.92039 1.2703-1.6905 1.7723-0.60184 0.39229-1.2837 0.83679-1.8651 1.5487-1.2266 1.5025-1.5391 3.135-1.6894 3.9198l-0.03387 0.17603c-0.12136 0.60748-0.5549 0.90275-1.3247 0.90275h-10.273c-0.07902-0.41663-0.17533-0.8075-0.25964-1.1483m-19.181 1.1483c-0.04022-0.05009-0.09278-0.08361-0.16016-0.09948-0.25682-0.05891-0.64486-0.14781-1.1134-2.6398-0.48082-2.558-0.63359-7.2857-0.11782-9.785 0.51082-2.4758 1.8866-3.3837 2.8911-4.0468 0.10724-0.070908 0.2099-0.13864 0.30657-0.20496 0.96273-0.66145 4.1401-2.6014 7.2389-3.6197 2.408-0.79091 6.1234-1.2594 11.043-1.3917 0.18732-0.00494 0.3951-0.008818 0.61912-0.012348-0.28786 2.0828-0.84488 6.2327-1.0989 8.9481-0.36546 3.9063-0.85936 10.043-0.80115 10.768 0.01905 0.23812 0.10407 0.58102 0.20249 0.97789 0.08149 0.32914 0.17427 0.70518 0.25153 1.1059zm19.471 0.17639h10.242c0.85512 0 1.3589-0.35136 1.4975-1.0449l0.03457-0.17709c0.15875-0.82972 0.45402-2.3735 1.6524-3.8409 0.56374-0.69074 1.2337-1.1271 1.8249-1.5127 0.79903-0.52069 1.4891-0.97048 1.7628-1.869 0.10971-0.35948 0.28892-0.89145 0.49601-1.5081 0.71085-2.1099 1.6834-5.0006 1.5801-5.921-0.1404-1.247-3.6237-5.7184-5.1754-5.9422-1.4418-0.20778-8.8751-0.37994-12.476-0.33901 0.03316-0.23742 0.06173-0.44098 0.08502-0.60676-0.05962 7.1437e-4 -0.11924 0.0014023-0.1785 0.0021166-0.02363 0.16721-0.05221 0.37007-0.08502 0.60676-0.2353 0.003175-0.45262 0.007408-0.64804 0.0127-4.9368 0.133-8.669 0.6043-11.094 1.4009-3.1181 1.0245-6.315 2.976-7.2836 3.6417-0.0956 0.06597-0.1972 0.133-0.30374 0.20285-1.0297 0.68016-2.4408 1.6115-2.9665 4.1589-0.51964 2.5181-0.36652 7.2789 0.11747 9.853 0.49 2.6052 0.92743 2.7053 1.2573 2.7813 0.15875 0.03669 0.14816 0.51612 0.13723 1.0237-7.93e-4 0.04127-0.0011 0.08961-0.0019 0.13264h0.17638c0.0011-0.04198 0.0011-0.08854 0.0019-0.12876 0.0085-0.39687 0.01553-0.71508-0.04163-0.92603h19.209c0.06032 0.34078 0.10336 0.69637 0.1203 1.0548h0.17709c-0.01659-0.35912-0.05891-0.71437-0.11783-1.0548"/>
  <path d="m2.1188 12.029c0.21202 0.08678 0.41346 0.16898 0.65158 0.16898 0.041626 0 0.084666-0.0024 0.12912-0.0078 0.45296-0.0568 3.0183-0.57713 5.2818-1.0364 1.2703-0.25788 2.4705-0.5013 3.1022-0.62301 1.337-0.25752 2.1547-1.6086 2.4913-2.2962-0.1076 0.057197-0.20108 0.10553-0.27728 0.14257-0.37888 0.69426-1.1292 1.7649-2.2472 1.9805-0.63288 0.12171-1.8334 0.36546-3.1043 0.62335-2.2602 0.4586-4.822 0.97823-5.2683 1.034-0.24906 0.031043-0.45508-0.052212-0.69214-0.14922-0.12241-0.050096-0.25153-0.1009-0.39229-0.13935-0.064206 0.04586-0.12418 0.09278-0.18203 0.1397 0.18521 0.03387 0.34853 0.09772 0.50765 0.16298"/>
  <path d="m34.681 11.402v-0.5027c0-0.1718-0.13935-0.3108-0.3108-0.3108h-2.4546c-0.1718 0-0.3108 0.139-0.3108 0.3108v0.5027z"/>
 </g>
 <g stroke-width=".26458">
  <path d="m31.607 11.402v0.5027c0 0.1718 0.1397 0.3108 0.31115 0.3108h2.4542c0.1718 0 0.31115-0.13899 0.31115-0.3108v-0.5027z" fill="#ab2246"/>
  <path d="m52.969 11.402v-0.5027c0-0.1718-0.13935-0.3108-0.3108-0.3108h-2.4546c-0.1718 0-0.3108 0.139-0.3108 0.3108v0.5027z" fill="#c42750"/>
  <path d="m49.892 11.402v0.5027c0 0.1718 0.1397 0.3108 0.31115 0.3108h2.4542c0.1718 0 0.31115-0.13899 0.31115-0.3108v-0.5027z" fill="#ab2246"/>
  <path d="m1.7309 12.786c-0.25364 0.02752-0.65581 0.25894-0.92426 0.43074-0.26387 1.0696-0.3757 2.7297-0.42121 4.1462 0.24024-0.05327 0.54292-0.16792 0.82726-0.42087 0.59549-0.52916 1.4224-2.9432 1.4224-3.4173 0-0.47413-0.49635-0.78281-0.90415-0.73871" fill="#ffb073"/>
  <path d="m62.92 9.0603h-0.67627c-0.58454 0-1.0583 0.47378-1.0583 1.0583v2.6165h1.7346z" fill="#ffb073"/>
  <path d="m62.243 15.146h0.67627v-2.4105h-1.7346v1.3522c0 0.58454 0.47378 1.0583 1.0583 1.0583" fill="#ff7445"/>
  <path d="m56.821 1.4536c-0.44415 0.37994-0.49635 1.0477-0.11712 1.4919l3.8724 4.5532c0.37959 0.44449 1.0477 0.49635 1.4922 0.11712l0.19932-0.17039c-1.2569-1.5543-4.0092-4.7394-5.2908-6.1248z" fill="#4f4f4f"/>
 </g>
 <circle cx="56.308" cy="22.347" r="2.6458" fill="none" stroke="#000" stroke-dasharray="1.38905" stroke-width="1.8521">
  <animateTransform attributeName="transform" begin="0s" dur="1s" from="0 56.308 22.347" repeatCount="indefinite" to="-60 56.308 22.347" type="rotate"/>
 </circle>
 <circle cx="8.6282" cy="22.347" r="2.6458" fill="none" stroke="#000" stroke-dasharray="1.38905" stroke-width="1.8521">
  <animateTransform attributeName="transform" begin="0s" dur="1s" from="0 8.6282 22.347" repeatCount="indefinite" to="-60 8.6282 22.347" type="rotate"/>
 </circle>
</svg>
