<?xml version="1.0" encoding="UTF-8"?>
<svg width="71.563mm" height="25.358mm" version="1.1" viewBox="0 0 71.563 25.358" xmlns="http://www.w3.org/2000/svg">
 <defs>
  <linearGradient id="linearGradient294" x2="1" gradientTransform="matrix(1.1171 7.7022 -7.7022 1.1171 34.899 10.89)" gradientUnits="userSpaceOnUse">
   <stop stop-color="#c7c7c7" offset="0"/>
   <stop stop-color="#a8a8a8" offset="1"/>
  </linearGradient>
 </defs>
 <path d="m1.972 21.188s6.4382 0.58773 7.673 0.58773 2.7633-0.58773 3.9981-0.58773h41.54c1.5875 0 9.4076-0.85267 11.348-1.088 1.9403-0.23495 3.9391-0.23495 4.439-1.2051 0.49989-0.97014 0.76447-4.439 0.47026-5.2917-0.29386-0.85267-0.70556-0.67628-1.1169-2.1756-0.41169-1.4993-1.4111-4.9978-1.7639-5.2035-0.35278-0.20567-3.9984-0.44098-7.6437-1.7343-3.6453-1.2936-8.1432-3.5867-14.817-4.2041-6.6735-0.61736-12.671-0.26458-17.551 1.5286-4.88 1.7935-11.436 5.6152-13.259 5.9973-1.8228 0.38241-7.673 1.264-10.819 2.8812-3.1457 1.6168-3.6749 2.8808-4.057 4.5861-0.38206 1.705-0.24236 3.6234-0.33055 3.888s-0.13229 0.52917 0 0.79376 0.61948 1.1137 1.8888 1.2273" fill="#a8a8a8" stroke-width=".35278"/>
 <path d="m0.67211 14.322c-0.10372 0.3041-0.1838 0.61878-0.25859 0.95004-0.38206 1.705-0.24236 3.6234-0.33091 3.888-0.087842 0.26458-0.13194 0.52917 0 0.79376 0.13265 0.26458 0.61983 1.1137 1.8891 1.2277 0 0 6.4386 0.58773 7.6733 0.58773 1.2344 0 2.763-0.58773 3.9981-0.58773h41.54c1.5875 0 9.4076-0.85267 11.348-1.088 1.9403-0.23495 3.9391-0.23495 4.439-1.2054 0.49989-0.96979 0.76447-4.439 0.47026-5.2913-0.29387-0.85302-0.70556-0.67628-1.1165-2.1759-0.08678-0.31397-0.20003-0.71826-0.32632-1.1596z" fill="url(#linearGradient294)" stroke-width=".35278"/>
 <path d="m56.228 7.6982c-0.17286-0.28257-0.35101-0.54398-0.5394-0.82127-0.33972-0.49918-0.69109-1.0153-1.0449-1.7085l-0.15734 0.0804c0.35878 0.70274 0.71367 1.2238 1.0566 1.7276 0.18697 0.27481 0.36407 0.53481 0.5341 0.81385 0.51118 0.83574 0.61454 1.6718 0.28434 2.2938-0.21343 0.40075-2.0997 2.4648-3.9243 4.4605-1.3307 1.4556-2.5873 2.83-3.1873 3.55-1.3487 1.6189-2.5957 1.7544-3.6583 1.7544h-6.9017c-0.0032-0.57679-0.01976-3.9769 3.52e-4 -7.8267 0.02187-4.1734 0.4953-5.3569 0.50024-5.3682l-0.16263-0.0684c-0.01976 0.0473-0.49212 1.2111-0.514 5.4356-0.02011 3.8484-0.0035 7.2475-3.53e-4 7.8278h-16.801c-1.0206 0-1.1123-0.22965-1.2192-0.49565-0.07902-0.19826-0.3616-1.1645-0.67733-5.2878-0.28187-3.6837 0.23389-5.4405 0.23918-5.4578l0.03457-0.11395h-0.11889c-0.01482 0-0.37183 2e-3 -1.1444 0.17886-0.7172 0.16369-1.7124 0.30904-2.7848 0.44133 0.28046-0.39406 0.85443-1.215 0.92604-1.4302 0.01764-0.0526 0.01023-0.10654-0.02046-0.15593-0.04904-0.079-0.17321-0.14393-0.31962-0.1972-0.08573 0.0367-0.16933 0.0723-0.25012 0.10548 0.24977 0.0677 0.41557 0.14252 0.42263 0.19191-0.06491 0.19579-0.70132 1.1038-0.99624 1.5148-0.76835 0.0924-1.5674 0.17886-2.3273 0.26035-1.445 0.15593-2.6935 0.29034-3.206 0.41628-0.60713 0.14887-2.2292 0.68933-3.6604 1.1659-1.3409 0.44697-2.6077 0.86889-2.8123 0.89535-0.21202 0.0275-0.54716-0.1464-0.81986-0.32279-0.05468 0.0363-0.10301 0.0723-0.15522 0.10866 0.28892 0.19261 0.70661 0.42651 0.99766 0.38911 0.2219-0.0286 1.4376-0.43356 2.8455-0.90276 1.428-0.47589 3.0466-1.0149 3.6467-1.1624 0.50094-0.12277 1.7438-0.25682 3.1831-0.41169 0.7814-0.0843 1.6044-0.17322 2.3936-0.26882l0.0078 6e-3c0.0014-1e-3 0.0039-5e-3 0.0053-7e-3 1.1384-0.13829 2.2034-0.29034 2.9637-0.46426 0.50412-0.11535 0.82868-0.15416 0.98813-0.16756-0.11254 0.45437-0.46002 2.1826-0.21378 5.4017 0.30868 4.0351 0.58491 5.0789 0.68968 5.34 0.1464 0.36653 0.32173 0.60677 1.3825 0.60677h23.879c0.79622 0 2.2793 0 3.7941-1.8175 0.59725-0.71719 1.8524-2.0902 3.1817-3.544 1.832-2.0041 3.7264-4.0764 3.9497-4.4969 0.36054-0.67839 0.25506-1.5783-0.28892-2.4687" fill="#999"/>
 <g stroke-width=".35278">
  <path d="m57.262 13.318c-3.5317 0-6.3941 2.8625-6.3941 6.3941 0 0.50694 0.06526 0.99731 0.17674 1.47h4.1378c1.1225 0 5.3594-0.42616 8.4321-0.75883 0.02575-0.23389 0.04163-0.47026 0.04163-0.7112 0-3.5317-2.8625-6.3941-6.3941-6.3941" fill="#616161"/>
  <path d="m13.643 21.188h4.74c0.11113-0.47272 0.17674-0.96309 0.17674-1.47 0-3.5317-2.8632-6.3941-6.3941-6.3941-3.5317 0-6.3941 2.8625-6.3941 6.3941 0 0.63324 0.094898 1.2432 0.26635 1.8207 1.5484 0.1263 3.0702 0.23707 3.6072 0.23707 1.2347 0 2.7633-0.58773 3.9981-0.58773" fill="#616161"/>
  <path d="m17.81 19.718c0 3.1175-2.5273 5.6445-5.6445 5.6445-3.1175 0-5.6445-2.527-5.6445-5.6445s2.527-5.6445 5.6445-5.6445c3.1172 0 5.6445 2.527 5.6445 5.6445" fill="#404040"/>
  <path d="m16.023 19.718c0 2.1304-1.7272 3.8576-3.8576 3.8576-2.1308 0-3.8576-1.7272-3.8576-3.8576 0-2.1308 1.7269-3.8576 3.8576-3.8576 2.1304 0 3.8576 1.7269 3.8576 3.8576" fill="#efefef"/>
  <path d="m62.906 19.718c0 3.1175-2.527 5.6445-5.6445 5.6445s-5.6445-2.527-5.6445-5.6445 2.527-5.6445 5.6445-5.6445 5.6445 2.527 5.6445 5.6445" fill="#404040"/>
  <path d="m61.119 19.718c0 2.1304-1.7269 3.8576-3.8576 3.8576-2.1308 0-3.8573-1.7272-3.8573-3.8576 0-2.1308 1.7265-3.8576 3.8573-3.8576 2.1308 0 3.8576 1.7269 3.8576 3.8576" fill="#efefef"/>
  <path d="m39.021 0.8882c-1.7434 0.075848-3.7705 0.021872-6.9452 0.70556-3.175 0.68369-8.4008 3.4618-10.517 4.7848-2.1167 1.3226-3.9469 2.6455-3.9469 2.6455s11.51-0.92605 17.617-1.4111 15.986-1.1243 17.176-1.2566c1.1906-0.13229 5.7327-1.4111 5.6445-1.6535-0.088195-0.24271-7.8938-4.2997-19.028-3.8146" fill="#4f4f4f"/>
  <path d="m37.441 7.0882c0.21908-0.016581 0.20144-0.093134 0.25682-0.30233 0.05503-0.20955 0.65405-4.8546 0.68792-5.0603 0.03351-0.20602 0.02505-0.46285-0.13653-0.45791v-3.528e-4c-0.03634 0.00106-0.0695 0.00282-0.10654 0.00388-1.5808 0.047978-3.3722 0.10266-5.9934 0.66675-3.2212 0.69357-8.4935 3.5447-10.404 4.7389-0.41487 0.25929-0.81951 0.51929-1.2016 0.76941-0.63818 0.41734-0.49213 1.0273 0.26529 0.96662 3.8647-0.31045 10.325-0.82903 14.391-1.1522 0.70097-0.055386 1.4559-0.1136 2.2409-0.17251" fill="#404040"/>
  <path d="m10.291 9.8982c-1.984 0.28646-4.5861 0.99237-6.1073 1.6316-1.5215 0.63924-2.6018 1.8521-2.5136 2.3153 0.088195 0.46285 2.4913-0.022226 4.2111-0.81598s4.6257-3.162 4.4098-3.1309" fill="#e0e0e0"/>
  <path d="m53.595 4.9282c0-0.46108-0.81951-2.0027-2.0818-2.377-2.8113-0.73766-6.4375-1.3582-10.644-1.3582-0.04974 0-0.09984 0.00141-0.14958 0.00176-0.139 0.00459-0.20708 0.15064-0.21449 0.26635-0.0074 0.11748-0.12876 4.722-0.11783 5.0529 0.01129 0.33055 0.39688 0.32174 0.39688 0.32174v3.527e-4c1.7995-0.12947 3.616-0.25682 5.242-0.37077 3.2258-0.22613 5.774-0.40464 6.3391-0.46743 0.11218-0.012347 0.25188-0.034925 0.40887-0.064206 0.74578-0.16474 0.82057-0.54116 0.82057-1.0054" fill="#404040"/>
  <path d="m70.323 11.418c-0.1965-0.71403-0.52564-1.88-0.85514-2.9295-0.18803-0.19156-0.5327-0.42933-1.1292-0.48084-1.0291-0.088195-5.4826-0.058561-5.5418 0-0.05856 0.058914-0.01446 0.51471 0.67628 0.83785 0.65441 0.30657 5.3058 1.9583 6.8926 2.7189-0.01411-0.04868-0.02858-0.09419-0.04269-0.1464" fill="#ef3061"/>
  <path d="m1.182 19.298c0.58279 0 1.1698-0.40252 1.3159-0.92922l0.29387-1.0732c0.17957-0.63959-0.2406-1.1945-0.94333-1.1945h-1.5794c-0.19685 1.451-0.11148 2.8423-0.18556 3.0646-0.014817 0.0441-0.025753 0.08819-0.037395 0.13229z" fill="#4f4f4f"/>
  <path d="m36.726 9.5382c0.04022 0.33973-0.50553 0.68404-1.2189 0.76871-0.71367 0.08467-1.3243-0.12242-1.3646-0.46214-0.040217-0.33973 0.50518-0.68369 1.2185-0.76871 0.71367-0.084314 1.3247 0.12277 1.3649 0.46214" fill="#878787"/>
 </g>
 <path d="m37.149 9.4882c0.02081 0.17321-0.7306 0.40499-1.6782 0.51717-0.94686 0.11254-1.7314 0.0632-1.7522-0.11042-0.02046-0.17321 0.73096-0.40499 1.6778-0.51717 0.94756-0.11218 1.7321-0.0628 1.7526 0.11042" fill="#ccc"/>
 <path d="m54.211 8.6582c0.040217 0.33973-0.50553 0.68404-1.2189 0.76871-0.71367 0.084667-1.3243-0.12241-1.3646-0.46214-0.040217-0.33973 0.50518-0.68369 1.2185-0.76871 0.71367-0.084314 1.3247 0.12277 1.3649 0.46214" fill="#878787" stroke-width=".35278"/>
 <path d="m54.634 8.6082c0.02081 0.17322-0.73061 0.40499-1.6782 0.51718-0.94686 0.11254-1.7314 0.063148-1.7523-0.11042-0.02046-0.17321 0.73096-0.40499 1.6778-0.51718 0.94757-0.11218 1.7322-0.062795 1.7526 0.11042" fill="#ccc" stroke-width=".35278"/>
 <circle cx="12.15" cy="19.7" r="2.6458" fill="none" stroke="#000" stroke-dasharray="1.38905" stroke-width="1.8521">
  <animateTransform attributeName="transform" begin="0s" dur="1s" from="0 12.15 19.7" repeatCount="indefinite" to="-60 12.15 19.7" type="rotate"/>
 </circle>
 <circle cx="57.2" cy="19.7" r="2.6458" fill="none" stroke="#000" stroke-dasharray="1.38905" stroke-width="1.8521">
  <animateTransform attributeName="transform" begin="0s" dur="1s" from="0 57.2 19.7" repeatCount="indefinite" to="-60 57.2 19.7" type="rotate"/>
 </circle>
</svg>
