<?xml version="1.0" encoding="UTF-8"?>
<svg width="68.075mm" height="26.345mm" version="1.1" viewBox="0 0 68.075 26.345" xmlns="http://www.w3.org/2000/svg" xmlns:cc="http://creativecommons.org/ns#" xmlns:dc="http://purl.org/dc/elements/1.1/" xmlns:rdf="http://www.w3.org/1999/02/22-rdf-syntax-ns#">
 <metadata>
  <rdf:RDF>
   <cc:Work rdf:about="">
    <dc:format>image/svg+xml</dc:format>
    <dc:type rdf:resource="http://purl.org/dc/dcmitype/StillImage"/>
    <dc:title/>
   </cc:Work>
  </rdf:RDF>
 </metadata>
 <defs>
  <linearGradient id="linearGradient178" x2="1" gradientTransform="matrix(-2.4694e-7 5.4477 -5.4477 -2.4694e-7 34.035 12.005)" gradientUnits="userSpaceOnUse">
   <stop stop-color="#ffd52b" offset="0"/>
   <stop stop-color="#fb0" offset="1"/>
  </linearGradient>
 </defs>
 <g stroke-width=".26458">
  <path d="m55.712 0.88248s3.2596 0.18732 3.5242 0.23142c0.26458 0.044095 0.33795 0.41169 0.08819 0.60253-0.24976 0.1912-1.0876 0.85266-1.0876 0.85266z" fill="#ff8c00"/>
  <path d="m-6.33e-4 20.297c0 0.93979 0.20602 1.9981 1.4111 2.2038 1.2054 0.20602 3.5573 0.41169 4.2923 0.41169h58.295c1.1172 0 2.7635-0.94085 3.4985-2.2048 0.73482-1.264 0.55845-2.2637 0.55845-3.4102 0-1.1465-1.2347-2.5869-1.2347-3.1453v-3.9393c0-0.58808-0.72143-1.646-1.5656-2.3812-0.84488-0.73482-7.2831-6.438-9.1352-6.8791-1.8521-0.44098-18.697-0.99977-20.843-0.94085-2.1459 0.058911-3.8216 1.029-4.2333 1.2054-0.41134 0.17638-11.876 6.732-12.141 6.8201-0.26458 0.088192-7.0852 1.2347-10.26 2.0285-3.175 0.79374-5.3813 1.1747-7.114 3.3221-1.3525 1.6757-1.5289 4.7939-1.5289 6.9095" fill="#fb0"/>
  <path d="m2.1504 12.712c-0.21448 0.20426-0.42227 0.42722-0.62264 0.67592-1.3525 1.6757-1.5293 4.7939-1.5293 6.9095 0 0.93979 0.20602 1.9981 1.4111 2.2038 1.2054 0.20567 3.5573 0.41169 4.2923 0.41169h58.295c1.1172 0 2.7635-0.94085 3.4985-2.2048 0.73519-1.2643 0.55845-2.2637 0.55845-3.4102s-1.2347-2.5869-1.2347-3.1453v-1.4404z" fill="url(#linearGradient178)"/>
  <path d="m39.61 8.2061c0.2092-0.014473 0.28821-0.18097 0.32138-0.30234 0.03316-0.12135 1.0393-5.92 1.0724-6.1184 0.03316-0.19826 0.14005-0.4392-0.11006-0.43849v-0.00132c-1.4086 0.00283-2.7294 0.015531-3.7954 0.032104-0.61734 0.00952-3.1308 0.52916-4.6966 1.3892-1.5653 0.8597-6.2618 3.9907-7.0333 4.6079-0.77186 0.61734-0.63957 1.6979 0.74964 1.6979 0.65438 0 6.9677-0.42121 13.492-0.86642" fill="#4f4f4f"/>
  <path d="m55.267 6.3619c-0.35276-0.94825-2.4306-4.2058-3.8144-4.586-1.1246-0.30903-5.1265-0.41169-8.9515-0.42722-0.1651-7.937e-4 -0.24236 0.12947-0.26458 0.31678-0.02188 0.18768-0.39687 5.843-0.38557 6.1076 0.01058 0.26105 0.2353 0.26492 0.2413 0.26492 6.4608-0.44309 12.446-0.86007 12.58-0.86007 0.44521 0 0.73977-0.42722 0.59512-0.81596" fill="#4f4f4f"/>
  <path d="m59.609 14.048c-3.6777 0-6.6587 2.981-6.6587 6.6587 0 0.77398 0.13864 1.5141 0.38134 2.2048h10.665c0.62264 0 1.4097-0.29281 2.1117-0.77046 0.1016-0.46249 0.1591-0.94119 0.1591-1.4344 0-3.6777-2.9813-6.6587-6.6587-6.6587" fill="#ff8c00"/>
  <path d="m18.263 22.911c0.24236-0.69074 0.38171-1.4308 0.38171-2.2048 0-3.6777-2.9813-6.6587-6.6587-6.6587-3.6777 0-6.6587 2.981-6.6587 6.6587 0 0.77398 0.13864 1.5141 0.38134 2.2048z" fill="#ff8c00"/>
  <path d="m17.631 20.707c0 3.117-2.5273 5.6443-5.6443 5.6443-3.1175 0-5.6443-2.5273-5.6443-5.6443 0-3.1175 2.5269-5.6443 5.6443-5.6443 3.117 0 5.6443 2.5269 5.6443 5.6443" fill="#404040"/>
  <path d="m15.842 20.707c0 2.1304-1.7272 3.8576-3.8576 3.8576-2.1307 0-3.8576-1.7272-3.8576-3.8576 0-2.1307 1.7268-3.8576 3.8576-3.8576 2.1304 0 3.8576 1.7268 3.8576 3.8576" fill="#efefef"/>
  <path d="m65.255 20.707c0 3.117-2.5273 5.6443-5.6443 5.6443-3.1175 0-5.6443-2.5273-5.6443-5.6443 0-3.1175 2.5269-5.6443 5.6443-5.6443 3.117 0 5.6443 2.5269 5.6443 5.6443" fill="#404040"/>
  <path d="m63.467 20.707c0 2.1304-1.7272 3.8576-3.8576 3.8576-2.1307 0-3.8576-1.7272-3.8576-3.8576 0-2.1307 1.7268-3.8576 3.8576-3.8576 2.1304 0 3.8576 1.7268 3.8576 3.8576" fill="#efefef"/>
  <path d="m55.995 10.622c-0.27762 1.4199-1.4323 2.8254-2.7694 4.4526-0.44979 0.54787-0.91473 1.1144-1.3815 1.7215-1.9939 2.5971-2.2055 3.8721-2.2225 4.2007-0.02117 0.39404-0.24553 0.57784-0.7059 0.57784h-8.9304c-0.0019-0.37676-0.01516-0.87735-0.03211-1.5074-0.04022-1.4993-0.10124-3.7644-0.05538-6.5169 0.06491-3.8838 1.0961-5.2924 1.1067-5.3056l0.01659-0.021881 0.0011-0.027162c0.21837-4.3854 1.0086-6.8989 1.088-7.332 4.0557 0.1083 8.4589 0.26141 9.1076 0.35911 1.1426 0.17286 1.9681 1.1698 3.5795 3.4038 1.5522 2.1526 1.609 3.8896 1.1977 5.9951m-34.7 10.953c-0.42156 0-0.45542-0.24623-0.45542-0.54398v-2.4694c0-0.60502-0.10407-1.2054-0.22401-1.9007-0.16827-0.97082-0.37711-2.1798-0.36406-3.8605 0.02151-2.8233 1.4153-3.9401 3.6885-5.5287 2.2419-1.567 9.3145-5.6655 9.3862-5.7065 0.56303-0.32774 1.6266-0.71894 2.6306-0.80432 0.10089-0.008811 0.32562-0.013044 0.6678-0.013044 1.0128 0 3.235 0.057149 5.3056 0.11148-0.09278 0.51223-0.86994 3.0122-1.0844 7.3016-0.14111 0.20143-1.0636 1.6584-1.1261 5.3866-0.04586 2.7561 0.01516 5.0241 0.05539 6.5245 0.01728 0.62864 0.03034 1.1285 0.0321 1.5028zm29.948-20.526c-1.1081-0.16721-11.837-0.4773-14.618-0.4773-0.35208 0-0.57538 0.004577-0.68227 0.013758-1.0319 0.087489-2.1255 0.49035-2.7051 0.82726-0.07091 0.041274-7.1503 4.1431-9.3987 5.7147-2.3272 1.627-3.7422 2.8204-3.7636 5.6718-0.01304 1.6965 0.1972 2.9138 0.36652 3.8922 0.11888 0.68685 0.22154 1.2802 0.22154 1.8704v2.4694c0 0.23389 0 0.72037 0.63182 0.72037h27.62c0.69603 0 0.86359-0.40534 0.88158-0.74506 0.01198-0.22507 0.17286-1.4799 2.1868-4.1023 0.46426-0.60502 0.92886-1.1705 1.3779-1.7173 1.3518-1.6457 2.5199-3.067 2.8056-4.5307 0.32948-1.6862 0.53374-3.6896-1.2277-6.1319-1.6415-2.2761-2.4867-3.2927-3.6964-3.4753" fill="#ff8c00"/>
  <path d="m6.7276 10.889c0.13758 0.0049 0.22084 0.03492 0.32631 0.07302 0.19967 0.07232 0.44838 0.16228 1.1617 0.16228 0.71225 0 4.6735-0.6692 5.8705-0.87417 5.0802-0.87028 5.1051-0.95601 5.1209-1.0128 0.04657-0.16333-0.42862-0.68614-1.064-1.0509-0.08467 0.015875-0.17568 0.032456-0.27164 0.050096 0.6424 0.31043 1.0608 0.78104 1.1493 0.92039-0.84525 0.22648-9.7564 1.791-10.805 1.791-0.68227 0-0.91473-0.08431-1.1017-0.15169-0.11536-0.04163-0.21484-0.07761-0.37994-0.08361-0.15381-0.0046-0.50024 0.02574-0.87806 0.06632-0.30374 0.08784-0.59724 0.17956-0.87981 0.27905 0.57784-0.07373 1.4862-0.18203 1.7515-0.16898" fill="#ff8c00"/>
  <path d="m19.658 8.4997c0.24236 0.17639 0.76059 0.14323 1.1575-0.088192 0.39687-0.23142 10.363-6.4822 10.495-6.5595 0.13229-0.076906 0.15452-0.29739 0.06632-0.41875-0.03986-0.054681-0.17497-0.14428-0.3122-0.22683-0.0067 0.00283-0.01622 0.00741-0.02222 0.00987-0.39687 0.17039-11.07 6.2708-12.068 6.7846 0.18344 0.13441 0.51328 0.37499 0.68333 0.49881" fill="#4f4f4f"/>
  <path d="m1.9678 20.414v-1.264c0-0.58454-0.47413-1.0583-1.0583-1.0583h-0.82901c-0.064912 0.78316-0.082549 1.5434-0.082549 2.2055 0 0.3951 0.037745 0.81033 0.16933 1.1751h0.74223c0.58419 0 1.0583-0.47378 1.0583-1.0583" fill="#4f4f4f"/>
  <path d="m0.57351 16.85c0.062089-0.38663 0.41169-2.4038 1.1613-3.139 0.74963-0.73482 3.4985-1.8521 3.7335-1.7491 0.2353 0.10301-0.79374 2.2045-1.4256 3.1011-0.63216 0.89674-3.5552 2.3272-3.4692 1.7868" fill="#efefef"/>
  <path d="m2.915 14.958c-0.11042 0.60782-0.51646 1.1007-0.90698 1.1007-0.39086 0-0.61734-0.49283-0.50694-1.1007 0.11077-0.60782 0.51646-1.1007 0.90698-1.1007 0.39086 0 0.61734 0.49283 0.50694 1.1007" fill="#ff8c00"/>
  <path d="m4.1374 13.76c-0.070556 0.38769-0.32985 0.70238-0.5789 0.70238-0.24941 0-0.39404-0.31466-0.3235-0.70238 0.070907-0.38806 0.32985-0.70238 0.5789-0.70238 0.24941 0 0.39404 0.31432 0.3235 0.70238" fill="#e02b61"/>
  <path d="m65.255 11.095v1.8962c0 0.58454 0.47378 1.0583 1.0583 1.0583h0.50728v-3.8364c0-0.05362-0.01198-0.11536-0.02363-0.17639h-0.48365c-0.58454 0-1.0583 0.47378-1.0583 1.0583" fill="#ff8c00"/>
  <path d="m65.255 7.8303c-0.59194-0.51506-3.9285-3.4671-6.5105-5.3413-0.07091 0.16545-0.13828 0.40428-0.02294 0.56408 0.19085 0.26458 6.3941 5.4535 6.6587 5.6004 0.15945 0.088544 0.42933 0.068791 0.63004-0.036689-0.22683-0.27799-0.48331-0.54927-0.7553-0.78633" fill="#4f4f4f"/>
  <path d="m38.401 9.8094h-2.6466c-0.30408 0-0.55067 0.24659-0.55067 0.55104h3.7483c0-0.30445-0.24694-0.55104-0.55104-0.55104" fill="#ffcb3d"/>
  <path d="m35.755 10.913h2.6466c0.30408 0 0.55067-0.24659 0.55067-0.55104h-3.7483c0 0.30445 0.24694 0.55104 0.55104 0.55104" fill="#ff8c00"/>
  <path d="m54.275 9.8094h-2.6461c-0.30408 0-0.55104 0.24659-0.55104 0.55104h3.7483c0-0.30445-0.24659-0.55104-0.55104-0.55104" fill="#ffcb3d"/>
  <path d="m51.63 10.913h2.6461c0.30445 0 0.55104-0.24659 0.55104-0.55104h-3.7483c0 0.30445 0.24694 0.55104 0.55104 0.55104" fill="#ff8c00"/>
 </g>
 <circle cx="59.6" cy="20.7" r="2.6458" fill="none" stroke="#000" stroke-dasharray="1.38905" stroke-width="1.8521">
  <animateTransform attributeName="transform" begin="0s" dur="1s" from="0 59.6 20.7" repeatCount="indefinite" to="-60 59.6 20.7" type="rotate"/>
 </circle>
 <circle cx="11.9" cy="20.7" r="2.6458" fill="none" stroke="#000" stroke-dasharray="1.38905" stroke-width="1.8521">
  <animateTransform attributeName="transform" begin="0s" dur="1s" from="0 11.9 20.7" repeatCount="indefinite" to="-60 11.9 20.7" type="rotate"/>
 </circle>
</svg>
