<?xml version="1.0" encoding="UTF-8"?>
<svg width="68.402mm" height="27.12mm" version="1.1" viewBox="0 0 68.402 27.12" xmlns="http://www.w3.org/2000/svg" xmlns:cc="http://creativecommons.org/ns#" xmlns:dc="http://purl.org/dc/elements/1.1/" xmlns:rdf="http://www.w3.org/1999/02/22-rdf-syntax-ns#">
 <metadata>
  <rdf:RDF>
   <cc:Work rdf:about="">
    <dc:format>image/svg+xml</dc:format>
    <dc:type rdf:resource="http://purl.org/dc/dcmitype/StillImage"/>
    <dc:title/>
   </cc:Work>
  </rdf:RDF>
 </metadata>
 <defs>
  <linearGradient id="linearGradient614" x2="1" gradientTransform="matrix(.823 9.9363 -9.9363 .823 33.651 11.448)" gradientUnits="userSpaceOnUse">
   <stop stop-color="#707070" offset="0"/>
   <stop stop-color="#616161" offset="1"/>
  </linearGradient>
 </defs>
 <g stroke-width=".26458">
  <path d="m57.998 0.50254s2.8445 0.14323 3.506 0.20955c0.66145 0.065968 0.94791 0.15487 0.97014 0.34184 0.02188 0.18732-0.92603 0.90381-1.687 1.0692z" fill="#575757"/>
  <path d="m14.747 22.825h44.156c1.0287 0 8.525-1.5578 8.7605-1.7342 0.2353-0.17638 0.74223-0.88933 0.74223-2.0362v-2.7336c0-0.44098-0.81562-1.4552-0.81562-2.4476v-4.4098c0-0.35276-1.4111-2.5576-2.1166-3.5059-0.70556-0.94791-5.6665-5.2694-7.5847-5.5562-1.9184-0.28646-19.513-0.66145-23.107-0.15416-3.5941 0.50694-6.5044 2.0285-9.1722 3.616-2.668 1.5875-6.8349 4.0346-7.3863 4.1669-0.55104 0.13229-6.901 0.97014-10.429 1.6757-3.5276 0.70553-5.8872 1.5875-6.328 2.0507-0.44098 0.4632-0.52175 0.79408-0.66886 1.7053-0.14675 0.91121-0.23495 1.4993-0.38205 1.8372s-0.41169 0.52916-0.41169 1.1758v3.4692c0 0.4265 2.293 2.3812 3.1604 2.528 0.86711 0.14711 8.202 0.35276 11.583 0.35276" fill="#616161"/>
  <path d="m0.10489 15.885c-0.059266 0.15099-0.10195 0.33477-0.10195 0.59126v3.4692c0 0.4265 2.293 2.3812 3.1604 2.528 0.86676 0.14711 8.202 0.35276 11.582 0.35276h44.156c1.029 0 8.5258-1.5575 8.7608-1.7342 0.2353-0.17639 0.74223-0.88933 0.74223-2.0359v-2.7339c0-0.44098-0.81596-1.4552-0.81596-2.4472v-1.9385z" fill="url(#linearGradient614)"/>
  <path d="m53.325 6.1672-0.13652 0.11148c0.84348 1.0315 1.6009 2.195 1.4319 3.7147-0.13052 1.1761-1.561 2.3872-3.2176 3.7901-0.51823 0.43886-1.0544 0.89288-1.5787 1.3702-1.4527 1.3218-2.3357 3.1739-2.625 5.5041l-0.0049 0.03987c-0.06667 0.53411-0.34149 0.80504-0.81631 0.80504h-9.2158c-0.08537-0.30726-0.46354-1.784-0.46354-3.7922 0-2.2256 0.43992-6.7193 0.89251-8.2792 0.03034-0.26847 0.06526-0.60607 0.10407-0.98 0.10195-0.98424 0.22895-2.2094 0.36935-3.1038 0.19932-1.2672 0.50694-3.5816 0.56197-3.997 0.59478-0.047624 1.2538-0.092074 1.9124-0.12136l-0.0078-0.17603c-2.0958 0.093132-4.1965 0.33972-4.2177 0.34218l0.02082 0.17497c0.01376-0.00132 0.91121-0.10689 2.1124-0.20531-0.06738 0.50694-0.363 2.726-0.55633 3.9552-0.14111 0.89851-0.26847 2.1262-0.37041 3.1125-0.03881 0.37324-0.07373 0.71085-0.10125 0.96379-0.4533 1.5575-0.8964 6.0771-0.8964 8.3139 0 1.941 0.34996 3.3922 0.4572 3.7922h-16.325c-0.68016 0-0.89322-0.32244-1.0167-0.84348-0.12735-0.53728-0.5856-4.3648-0.5856-6.2854v-0.27622c-0.0021-1.7512-0.0032-2.6306 0.78387-4.1214 0.81525-1.5455 2.5347-2.5273 2.552-2.5371l-0.08643-0.15346c-0.07232 0.040568-1.7815 1.016-2.6218 2.608-0.80715 1.5293-0.8061 2.4239-0.80398 4.2039v0.27622c0 1.9762 0.45825 5.7678 0.59054 6.3258 0.12029 0.50871 0.34784 0.97929 1.1881 0.97929h25.723c0.39758 0 0.89216-0.16616 0.9913-0.95918l0.0049-0.04022c0.28397-2.2874 1.1483-4.1028 2.5689-5.3953 0.52175-0.47518 1.0565-0.92815 1.5741-1.3663 1.6848-1.427 3.1403-2.6596 3.2787-3.9052 0.17679-1.5889-0.64412-2.8355-1.4707-3.8457" fill="#525252"/>
  <path d="m17.107 22.825c0.09031-0.43603 0.13829-0.88828 0.13829-1.3518 0-3.6695-2.9747-6.6439-6.6439-6.6439-3.6695 0-6.6441 2.9741-6.6441 6.6439 0 0.36652 0.037393 0.72355 0.094542 1.0742 2.2535 0.13335 7.8615 0.27762 10.695 0.27762z" fill="#4d4d4d"/>
  <path d="m62.287 22.28c0.0321-0.26529 0.05362-0.53339 0.05362-0.80678 0-3.6695-2.9747-6.6439-6.6439-6.6439-3.6695 0-6.6441 2.9741-6.6441 6.6439 0 0.46354 0.04833 0.91579 0.13829 1.3518h9.7101c0.40534 0 1.8136-0.242 3.3858-0.54504" fill="#4d4d4d"/>
  <path d="m16.245 21.473c0 3.1175-2.5273 5.6443-5.6443 5.6443-3.117 0-5.6443-2.5269-5.6443-5.6443s2.5273-5.6443 5.6443-5.6443c3.117 0 5.6443 2.5269 5.6443 5.6443" fill="#404040"/>
  <path d="m14.459 21.473c0 2.1304-1.7272 3.8578-3.8576 3.8578-2.1307 0-3.8576-1.7275-3.8576-3.8578s1.7268-3.8576 3.8576-3.8576c2.1304 0 3.8576 1.7272 3.8576 3.8576" fill="#efefef"/>
 </g>
 <path d="m61.342 21.473c0 3.1175-2.5273 5.6443-5.6443 5.6443s-5.6443-2.5269-5.6443-5.6443 2.5273-5.6443 5.6443-5.6443 5.6443 2.5269 5.6443 5.6443" fill="#404040" stroke-width=".26458"/>
 <path d="m59.554 21.473c0 2.1304-1.7272 3.8578-3.8576 3.8578-2.1307 0-3.8576-1.7275-3.8576-3.8578s1.7268-3.8576 3.8576-3.8576c2.1304 0 3.8576 1.7272 3.8576 3.8576" fill="#efefef" stroke-width=".26458"/>
 <g stroke-width=".26458">
  <path d="m36.302 8.9956c0.19826-0.00635 0.4191-0.19226 0.54644-0.56692 0.1277-0.37499 0.77646-5.4903 0.88687-6.2176 0.11007-0.72566 0.10654-0.99093-0.30657-0.96201-1.6009 0.12206-3.1969 0.28609-4.6323 0.49881-0.96659 0.14358-3.0869 0.85301-4.8214 1.7935-1.7346 0.9405-6.5714 4.2407-6.8497 4.5563-0.64663 0.73519-0.23495 1.3525 0.94085 1.3229 0.53797-0.013044 7.1693-0.21166 14.236-0.4251" fill="#4d4d4d"/>
  <path d="m54.169 7.5404c-0.67627-1.7053-4.2923-6.0853-6.6439-6.438-1.0996-0.16545-4.3349-0.18344-7.9049 0.00635-0.21907 0.012356-0.52458 0.051503-0.56162 0.50765-0.03951 0.47942-0.4632 5.4239-0.50728 6.284-0.0441 0.8597 0.50728 1.0128 0.50728 1.0128 7.4813-0.22754 14.631-0.44733 14.787-0.46177 0.3235-0.028929 0.4787-0.51964 0.3235-0.91087" fill="#4d4d4d"/>
  <path d="m16.075 10.17c0.54432-0.0441 1.1765-0.22436 1.3617-0.52704 0.10865-0.1778 0.58102-1.0647 0.89005-1.6475-0.04233 0.016589-0.07937 0.029633-0.10548 0.035983-0.02716 0.00669-0.07232 0.014817-0.12665 0.0254-0.3048 0.57327-0.71154 1.3356-0.80856 1.494-0.12806 0.2099-0.64346 0.39581-1.2252 0.44344-0.2907 0.023283-3.8991 0.7373-7.3892 1.4273-2.994 0.59232-6.0898 1.2047-6.2801 1.2181-0.2854 0.02045-1.0231 0.01164-1.4358 0.0053-0.014816 0.05433-0.028223 0.115-0.041981 0.17568 0.21872 0.0039 0.54469 0.0081 0.84843 0.0081 0.25964 0 0.50164-0.0032 0.64206-0.01304 0.20073-0.01447 3.0281-0.57361 6.3015-1.221 3.3229-0.65722 7.0886-1.4023 7.3691-1.4248" fill="#525252"/>
  <path d="m2.4245 11.956c-0.32562 0.14393-1.2569 1.3229-1.3779 2.0944-0.12135 0.77186-0.01129 1.0255 0.39687 0.95918 0.4078-0.06597 2.1057-0.55104 2.6678-0.88192 0.56231-0.33054 2.2712-1.9071 2.3925-2.1717 0.121-0.26458-0.36406-0.56231-0.72778-0.60642-0.36372-0.0441-2.1276 0.06632-3.3514 0.60642" fill="#efefef"/>
  <path d="m62.723 7.5245c0.81139 0.019394 2.6514 0.013414 3.8174 0.00706-0.37782-0.59265-0.78175-1.1867-1.0686-1.5723-0.44555-0.59829-2.5855-2.54-4.586-3.9631-2.256-0.077961-8.0858-0.26916-8.2758-0.17462-0.23495 0.11747-0.14675 0.41134 0.33832 0.74963 0.48506 0.33832 5.9382 4.0425 6.9233 4.4833 0.98458 0.44098 1.6168 0.44061 2.8514 0.46989" fill="#4d4d4d"/>
  <path d="m64.171 12.97h3.4176v-3.3514h-1.1687c-0.30868 0-1.3007 1.1832-1.8743 1.7935-0.5729 0.60959-0.99199 1.5578-0.37465 1.5578" fill="#ef3061"/>
 </g>
 <circle cx="55.65" cy="21.45" r="2.6458" fill="none" stroke="#000" stroke-dasharray="1.38905" stroke-width="1.8521">
  <animateTransform attributeName="transform" begin="0s" dur="1s" from="0 55.65 21.45" repeatCount="indefinite" to="-60 55.65 21.45" type="rotate"/>
 </circle>
 <circle cx="10.6" cy="21.45" r="2.6458" fill="none" stroke="#000" stroke-dasharray="1.38905" stroke-width="1.8521">
  <animateTransform attributeName="transform" begin="0s" dur="1s" from="0 10.6 21.45" repeatCount="indefinite" to="-60 10.6 21.45" type="rotate"/>
 </circle>
</svg>
