<?xml version="1.0" encoding="UTF-8"?>
<svg width="64.323mm" height="28.226mm" version="1.1" viewBox="0 0 64.323 28.226" xmlns="http://www.w3.org/2000/svg" xmlns:cc="http://creativecommons.org/ns#" xmlns:dc="http://purl.org/dc/elements/1.1/" xmlns:rdf="http://www.w3.org/1999/02/22-rdf-syntax-ns#">
 <defs>
  <linearGradient id="linearGradient498" x2="1" gradientTransform="matrix(-1.4667e-6 34.666 -34.666 -1.4667e-6 479.4 509.15)" gradientUnits="userSpaceOnUse">
   <stop stop-color="#bde2ff" offset="0"/>
   <stop stop-color="#9ed5ff" offset="1"/>
  </linearGradient>
 </defs>
 <metadata>
  <rdf:RDF>
   <cc:Work rdf:about="">
    <dc:format>image/svg+xml</dc:format>
    <dc:type rdf:resource="http://purl.org/dc/dcmitype/StillImage"/>
    <dc:title/>
   </cc:Work>
  </rdf:RDF>
 </metadata>
 <g transform="translate(-73.672 -134.05)">
  <g transform="matrix(.26458 0 0 .26458 -21.008 12.781)">
   <path d="m358.73 527.59v9.1107c0 1.444-0.888 1.7787-0.888 3.2227s2.7787 6 5.6667 6.3333c2.888 0.33333 49.444 3.888 52.444 3.888h141.61s38.395-4.2213 39.172-4.888c0.77867-0.66667 4.224-9.6667 4.224-13.333 0-3.6667-0.55733-12.889-1.112-14.556-0.55466-1.6667-0.33333-30.223-1.6667-31.223-1.3333-1-23-22.777-25-24.111s-51.333-3.8893-67.333-3.6667c-16 0.22266-35 1.7787-42.445 4.668-7.4427 2.888-18.221 7.7773-27.776 13.888-9.5573 6.1107-21.223 14.667-24.112 15.445-2.8893 0.776-14.112 2.2213-24.889 5.5547-10.777 3.3333-14.111 5.1667-16.5 7.6667-2.3893 2.5-4.7227 5.6667-5.3893 6.1667s-2.6107 1.1107-2.944 2.2213c-0.33333 1.112-1.2773 8.8347-1.3893 9.7787-0.10934 0.944-1.6667 2.112-1.6667 3.8333" fill="#9ed5ff"/>
   <path d="m360.92 519.62c-0.25467 1.936-0.47067 3.712-0.52 4.1333-0.10934 0.944-1.6667 2.112-1.6667 3.8347v9.1093c0 1.444-0.888 1.7787-0.888 3.224 0 1.444 2.7787 6 5.6653 6.332 2.8893 0.33333 49.445 3.888 52.445 3.888h141.61s38.395-4.22 39.171-4.888c0.78-0.66667 4.224-9.6667 4.224-13.333 0-3.6667-0.556-12.888-1.1107-14.555-0.168-0.50533-0.26667-3.4733-0.35467-7.3907z" fill="url(#linearGradient498)"/>
   <g>
    <path d="m424.53 550.15c0.54267-2.06 0.86133-4.2107 0.86133-6.4427 0-13.943-11.303-25.245-25.245-25.245s-25.247 11.303-25.247 25.245c0 1.1947 0.112 2.3613 0.27334 3.5133 14.844 1.1587 38.663 2.9293 40.78 2.9293z" fill="#6d93b0"/>
    <path d="m570.59 518.46c-13.943 0-25.245 11.303-25.245 25.245 0 2.2307 0.31866 4.3827 0.86266 6.4427h11.352s32.124-3.532 38.185-4.644c0.0427-0.596 0.092-1.192 0.092-1.7987 0-13.943-11.304-25.245-25.247-25.245" fill="#6d93b0"/>
    <path d="m421.48 543.7c0 11.783-9.5507 21.333-21.333 21.333-11.783 0-21.333-9.5507-21.333-21.333s9.5507-21.333 21.333-21.333c11.783 0 21.333 9.5507 21.333 21.333" fill="#404040"/>
    <path d="m414.41 493.8c-0.33333 1.0827-11.096 8.8653-14.383 10.141-3.108 1.208-23.7 4.964-26.508 5.3773l-0.74133 0.11066c-2.0013 0.304-4.3493 0.65334-6.3627 0.44-0.18 0.216-0.34933 0.41867-0.508 0.60934 0.58534 0.088 1.196 0.12933 1.8227 0.12933 1.724 0 3.5467-0.276 5.1493-0.51867l0.736-0.11066c2.8933-0.42667 23.425-4.1613 26.655-5.416 3.0933-1.2013 14.293-8.9987 14.777-10.567 0.24267-0.78533-0.67866-1.676-1.7733-2.4213-0.24933 0.136-0.476 0.25066-0.692 0.35466 1.1427 0.736 1.9507 1.4733 1.828 1.8707" fill="#5fa2d6" opacity=".60001"/>
    <path d="m573.75 504.59c-1.2907 3.492-6.64 6.14-12.836 9.2053-2.628 1.3-5.3427 2.644-8.0173 4.1773-8.2453 4.7267-11.839 17.299-13.189 22.032-0.16533 0.576-0.29866 1.044-0.40533 1.3773-1.1253 3.4973-5.3147 3.768-6.5733 3.768h-35.843c-0.136-3.7213-1.4-41.417 1.9453-54.696 3.228-12.812 3.5307-25.731 3.5587-27.921 2.448-0.0373 4.7893-0.0493 6.9533-0.0493h2.3027c7.7853 0 43.648 1.404 46.443 2.156 2.5573 0.688 9.8613 13.128 12.897 19.324 2.7373 5.5907 4.5427 15.82 2.764 20.627m-138.8 40.56c-1.7547 0-2.0147-1.6533-2.44-5.396-0.0613-0.54133-0.12533-1.12-0.20267-1.7293-0.57866-4.628-2.4093-20.607-1.664-31.852 0.50534-7.6213 1.996-12.143 2.984-15.133 0.47334-1.436 0.84667-2.5707 0.932-3.5267 0.0467-0.524 0.0667-1.0027 0.0867-1.444 0.084-1.9427 0.13067-3.012 2.1133-4.484 3.292-2.4427 18.308-12.263 31.633-15.695 9.5107-2.448 22.443-3.16 33.328-3.3467-0.028 2.2213-0.33467 15.036-3.5387 27.747-3.36 13.339-2.1067 50.991-1.968 54.86zm123.31-81.153c-2.928-0.78934-38.609-2.18-46.615-2.18h-2.3027c-11.935 0-29.179 0.35466-41.115 3.4267-13.431 3.4587-28.551 13.347-31.864 15.807-2.2373 1.66-2.2973 3.056-2.3827 4.9907-0.0187 0.432-0.0387 0.9-0.084 1.4133-0.0773 0.88-0.44266 1.9813-0.90133 3.376-0.99733 3.0227-2.5067 7.5907-3.016 15.299-0.74933 11.304 1.0867 27.336 1.668 31.98 0.0747 0.60666 0.14 1.18 0.20267 1.7213 0.408 3.6053 0.67733 5.9867 3.1013 5.9867h97.776c1.3733 0 5.9453-0.30534 7.2067-4.2307 0.10934-0.33733 0.244-0.81333 0.412-1.4 1.332-4.6613 4.8693-17.043 12.881-21.635 2.6573-1.524 5.3627-2.8627 7.9813-4.156 6.3227-3.1307 11.784-5.8333 13.165-9.5733 2.0173-5.456-0.26533-15.996-2.7907-21.151-2.3267-4.7507-10.123-18.815-13.324-19.675" fill="#5fa2d6" opacity=".60001"/>
    <path d="m414.73 543.7c0 8.052-6.5267 14.581-14.58 14.581s-14.579-6.5293-14.579-14.581 6.5253-14.58 14.579-14.58 14.58 6.528 14.58 14.58" fill="#efefef"/>
    <path d="m591.92 543.7c0 11.783-9.5507 21.333-21.333 21.333-11.781 0-21.333-9.5507-21.333-21.333s9.552-21.333 21.333-21.333c11.783 0 21.333 9.5507 21.333 21.333" fill="#404040"/>
    <path d="m585.17 543.7c0 8.052-6.528 14.581-14.581 14.581-8.052 0-14.579-6.5293-14.579-14.581s6.5267-14.58 14.579-14.58c8.0533 0 14.581 6.528 14.581 14.58" fill="#efefef"/>
    <path d="m493.73 493.63c1.0027-0.0133 1.6173-0.50267 2-1.6533 3.4013-10.221 3.6667-23.443 3.8893-25.221 0.15467-1.2427 0.14667-2.1707-0.196-2.604-0.14533-0.18533-0.352-0.27866-0.628-0.27066-15.152 0.55333-28.368 2.1453-33.469 4.124-4.484 1.74-16.073 6.5307-26.833 13.411-3.0307 1.9387-6.2573 4.1133-9.4213 6.256-2.268 1.5413-5.6693 6.6947-1.4507 6.6947 1.8773 0 32.484-0.32933 66.109-0.736" fill="#4f4f4f"/>
    <path d="m505.92 463.7c-0.592 8e-3 -1.1787 0.024-1.768 0.0333-0.38933 0.196-0.70267 1.0373-0.58533 4.412 0.16666 4.7787-2.2773 21.112-2.388 23.112-0.11067 1.9973 0.884 2.2733 0.88533 2.2733 23.893-0.292 47.993-0.61334 65.281-0.61334 2.5 0 3.152-1.968 2.9067-2.9027-0.576-2.1947-1.2987-4.2467-2.1053-5.8947-2.28-4.6547-6.9613-12.813-10.236-16.879-0.64267-0.79866-3.5733-1.9507-4.508-1.992-16.585-0.76-36.399-1.5627-45.409-1.5627-0.744 0-1.4347 5e-3 -2.0733 0.0133" fill="#4f4f4f"/>
    <path d="m363.07 513.9c-0.36 0.32667-2.1667 10.5-1.0827 10.751 1.0827 0.24933 9.5827-1.084 11.416-1.7507 1.8333-0.66667 5.4147-9.1667 5.416-10 1e-3 -0.83333 0.084-1.9173-1.5827-1.7507-1.6667 0.168-12.636 1.3653-14.167 2.7507" fill="#fff"/>
    <path d="m364.35 538.98c2.2093 0 4.448-1.7907 4.9987-4l0.75333-3.0227c0.55333-2.2093-0.792-4-3.0013-4h-8.3707v8.7453c0 1.0667-0.48133 1.5293-0.73467 2.2773z" fill="#4f4f4f"/>
    <path d="m599.01 492.75h-5.888c-0.97867 0-1.7267 0.79467-1.6667 1.7747l1.1747 19.452c0.06 0.97866 0.90133 1.7733 1.88 1.7733h5.172c-0.24-4.26-0.30533-15.643-0.672-23" fill="#f26914"/>
    <path d="m490.79 500.27c0.06 1.292-2.088 2.444-4.8027 2.572-2.7107 0.12667-4.9573-0.816-5.02-2.1067-0.06-1.292 2.088-2.4427 4.8-2.5733 2.7133-0.128 4.96 0.81733 5.0227 2.108" fill="#5fa2d6"/>
    <path d="m492.4 500.19c0.0307 0.65867-2.864 1.332-6.464 1.5027-3.6013 0.16933-6.5467-0.22667-6.5773-0.88534-0.032-0.65866 2.864-1.332 6.4627-1.5013 3.6027-0.17067 6.548 0.22533 6.5787 0.884" fill="#bde2ff"/>
    <path d="m566.46 499.04c0.06 1.292-2.088 2.444-4.8027 2.572-2.7107 0.12667-4.9573-0.816-5.02-2.1067-0.06-1.292 2.088-2.4427 4.8-2.5733 2.7133-0.128 4.96 0.81733 5.0227 2.108" fill="#5fa2d6"/>
    <path d="m568.07 498.96c0.0307 0.65867-2.864 1.332-6.464 1.5027-3.6013 0.16933-6.5467-0.22667-6.5773-0.88534-0.032-0.65866 2.864-1.332 6.4627-1.5013 3.6027-0.17067 6.548 0.22533 6.5787 0.884" fill="#bde2ff"/>
   </g>
  </g>
 </g>
</svg>
