<?xml version="1.0" encoding="UTF-8"?>
<svg width="63.649mm" height="27.767mm" version="1.1" viewBox="0 0 63.649 27.767" xmlns="http://www.w3.org/2000/svg" xmlns:cc="http://creativecommons.org/ns#" xmlns:dc="http://purl.org/dc/elements/1.1/" xmlns:rdf="http://www.w3.org/1999/02/22-rdf-syntax-ns#">
 <defs>
  <linearGradient id="linearGradient410" x2="1" gradientTransform="matrix(-9.3333e-7 20.025 -20.025 -9.3333e-7 171 321.19)" gradientUnits="userSpaceOnUse">
   <stop stop-color="#f2f2f2" offset="0"/>
   <stop stop-color="#ebebeb" offset="1"/>
  </linearGradient>
 </defs>
 <metadata>
  <rdf:RDF>
   <cc:Work rdf:about="">
    <dc:format>image/svg+xml</dc:format>
    <dc:type rdf:resource="http://purl.org/dc/dcmitype/StillImage"/>
    <dc:title/>
   </cc:Work>
  </rdf:RDF>
 </metadata>
 <g transform="translate(-74.009 -134.28)">
  <g transform="matrix(.26458 0 0 .26458 60.589 61.811)">
   <g>
    <path d="m54.149 354.97s0.556 3.8907 4.8893 4.3333c4.3333 0.44534 28.777 0.33334 38.555 0.33334h163.33c3.6667 0 25.556-5.888 26.889-7.1107 1.3333-1.2227 2.5547-3.556 3.1107-7.8893 0.556-4.3333 0.38934-10.695 0-12.695-0.388-2-2.0547-2.3333-2.388-5.7493-0.33333-3.4173 0.36-16.917-4.612-25.333-4.972-8.4173-16.305-20.251-18.139-20.667-1.8333-0.41733-31.416-6.7507-65.249-6.2507-33.833 0.5-45.251 3.4173-59.084 9.3333-13.833 5.9173-39.667 23-41.167 24-1.5 1-27.333 7.896-34.416 12.365-7.084 4.468-11.279 13.801-11.723 13.968-0.444 0.16666-3.1107 2.5-3.3613 3.584-0.24933 1.0827 0.056 9.3893 3.3613 17.777" fill="#ebebeb"/>
    <path d="m182.85 315.17c0.0613 1.292-2.088 2.444-4.8013 2.5707-2.712 0.12933-4.9587-0.81467-5.02-2.1067-0.0613-1.292 2.0867-2.4427 4.8-2.572 2.7133-0.12667 4.96 0.81733 5.0213 2.108" fill="#d1d1d1"/>
    <path d="m184.46 315.1c0.032 0.65867-2.8627 1.332-6.464 1.5013-3.6013 0.17067-6.5453-0.22666-6.576-0.88533-0.032-0.65867 2.8627-1.332 6.4627-1.5013 3.6027-0.16934 6.548 0.22666 6.5773 0.88533" fill="#fff"/>
    <path d="m249.52 312.36c0.0613 1.292-2.088 2.444-4.8013 2.5707-2.712 0.12933-4.9587-0.81467-5.02-2.1067-0.0613-1.292 2.0867-2.4427 4.8-2.572 2.7133-0.12667 4.96 0.81733 5.0213 2.108" fill="#d1d1d1"/>
    <path d="m251.13 312.29c0.032 0.65867-2.8627 1.332-6.464 1.5013-3.6013 0.17067-6.5453-0.22666-6.576-0.88533-0.032-0.65867 2.8627-1.332 6.4627-1.5013 3.6027-0.16934 6.548 0.22666 6.5773 0.88533" fill="#fff"/>
   </g>
   <path d="m55.375 331.64c-0.68133 1.156-1.1027 1.9213-1.2253 1.968-0.444 0.16667-3.112 2.5-3.3613 3.5827-0.24933 1.084 0.056 9.3907 3.3613 17.779 0 0 0.55467 3.8907 4.888 4.3333 4.3333 0.44533 28.777 0.332 38.556 0.332h163.33c3.6667 0 25.555-5.8867 26.888-7.1093 1.3347-1.2227 2.5547-3.556 3.112-7.8907 0.556-4.3333 0.38933-10.693 0-12.693-0.388-2-2.056-2.3333-2.3893-5.7507-0.11067-1.1333-0.11067-3.3907-0.24-6.1933z" fill="url(#linearGradient410)"/>
   <g>
    <path d="m64.102 320.91h6.048c0.684 0 27.568-8.9653 28.765-9.5933 0.992-0.52 1.828-1.8613 1.4867-4.1213-0.0387 0.0267-0.088 0.0587-0.11334 0.076-0.0907 0.06-0.272 0.14134-0.52666 0.24267 0.17733 1.5347-0.22533 2.7253-1.156 3.212-1.0693 0.56-27.421 9.368-28.456 9.5173h-5.16c-0.30267 0.21467-0.59733 0.43734-0.888 0.66667" fill="#d1d1d1"/>
    <path d="m255.05 313.66c-0.73467 2.936-3.504 13.039-8.2813 19.777-4.4587 6.2867-7.2907 11.808-9.4733 16.381-2.444 5.12-4.9267 5.8107-7.032 5.8107h-39.467c-0.19867-2.876-1.66-25.204-0.424-38.825 0.63333-6.9893 1.7053-13.4 2.7427-19.6 1.16-6.936 2.252-13.5 2.7853-20.781 9.2493-0.21067 17.94-0.108 23.232 0.20666 0.828 0.0493 1.7493 0.096 2.7333 0.14667 6.888 0.35733 17.296 0.896 20.817 3.3493 3.816 2.6587 8.9947 10.401 11.544 17.259 1.86 5.0027 2.16 10.935 0.82267 16.276m-11.985-34.083c-3.6773-2.5613-13.784-3.084-21.164-3.4667-0.98267-0.0507-1.9013-0.0987-2.7293-0.14667-12.369-0.73333-43.275-0.31867-56.645 2.5613-12.961 2.7933-13.892 7.516-13.925 7.716l0.65733 0.11334c8e-3 -0.0453 0.98267-4.5 13.408-7.1773 7.4667-1.608 20.436-2.4453 32.564-2.74-0.53333 7.2253-1.6187 13.756-2.772 20.656-1.0387 6.212-2.1133 12.636-2.7493 19.651-1.2347 13.603 0.20933 35.825 0.41866 38.885h-61.753c-0.14266 0-0.30533 9e-3 -0.48133 0.0227-1.12 0.072-1.9293 0.0387-2.136-1.0827-2.6853-14.669-3.62-27.711-2.4987-34.885 1.076-6.8893 4.8507-10.215 4.888-10.247l-0.43466-0.50533c-0.16134 0.14-3.9947 3.5027-5.112 10.649-1.132 7.2453-0.19734 20.369 2.5013 35.107 0.26267 1.4333 1.3173 1.6547 2.2093 1.6547 0.224 0 0.43867-0.0133 0.62667-0.0267 0.16-0.0107 0.308-0.02 0.43733-0.02h101.89c3.28 0 5.5627-1.8507 7.6333-6.1893 2.1707-4.548 4.9867-10.037 9.416-16.284 4.8453-6.8333 7.6427-17.037 8.384-20.001 1.3693-5.468 1.0613-11.544-0.844-16.669-2.308-6.2093-7.3493-14.48-11.788-17.575" fill="#d1d1d1"/>
    <path d="m97.593 359.63h19.448c0.0587-0.696 0.108-1.3987 0.108-2.1107 0-13.808-11.193-25-25-25s-25 11.192-25 25c0 0.69067 0.048 1.3667 0.10267 2.0427 9.2867 0.12267 23.452 0.068 30.341 0.068" fill="#a1a1a1"/>
    <path d="m287.15 352.89c-2.176-11.589-12.332-20.363-24.553-20.363-13.807 0-25 11.191-25 25 0 0.712 0.048 1.4133 0.10666 2.1107h23.227c3.3853 0 22.279-5.0133 26.22-6.748" fill="#a1a1a1"/>
    <path d="m113.48 357.52c0 11.783-9.552 21.333-21.333 21.333s-21.333-9.5507-21.333-21.333 9.552-21.333 21.333-21.333 21.333 9.5507 21.333 21.333" fill="#404040"/>
    <path d="m106.73 357.52c0 8.052-6.528 14.58-14.58 14.58-8.0533 0-14.58-6.528-14.58-14.58 0-8.0533 6.5267-14.58 14.58-14.58 8.052 0 14.58 6.5267 14.58 14.58" fill="#efefef"/>
    <path d="m283.93 357.52c0 11.783-9.552 21.333-21.333 21.333-11.781 0-21.333-9.5507-21.333-21.333s9.552-21.333 21.333-21.333c11.781 0 21.333 9.5507 21.333 21.333" fill="#404040"/>
    <path d="m277.17 357.52c0 8.052-6.528 14.58-14.58 14.58-8.0533 0-14.58-6.528-14.58-14.58 0-8.0533 6.5267-14.58 14.58-14.58 8.052 0 14.58 6.5267 14.58 14.58" fill="#efefef"/>
    <path d="m252.59 298.41c-2.2227-4.6667-7.556-16.444-14.889-17.667-4.128-0.688-20.185-2.4667-39.28-2.484-0.72-1e-3 -1.0253 0.37334-1.108 0.928-0.084 0.556-2.4453 25.056-2.612 27.167-0.16667 2.1107 1.8867 2.064 1.8867 2.064 27.461-0.976 53.777-1.8973 54.892-1.8973 2.2213 0 3.3333-3.444 1.1107-8.1107" fill="#4f4f4f"/>
    <path d="m188.32 307.36c0.16667-0.83333 4-24.444 4.2773-26.333 0.27867-1.8827 0.71867-2.7187-0.76666-2.6947-13.051 0.27733-26.993 1.4707-39.233 4.4173-9.4573 2.276-27 13.555-32.777 17.444-5.7773 3.8893-13.444 9.2227-11.889 10.444 1.556 1.2227 15.112 0.44534 27 0 5.188-0.19333 27.62-1.0013 51.443-1.8493 0.948-0.0347 1.78-0.59467 1.9467-1.428" fill="#4f4f4f"/>
    <path d="m283.93 300.86c-4.148-7.0227-12.707-16.399-16.5-19.563-0.592 0.956-1.132 2.2507-0.472 3.1453 1.1667 1.584 5.8333 6.5013 10.249 12 4.4173 5.5 5.5 8.0013 6.3333 8.5013 0.46 0.276 1.552 0.75067 2.524 0.776-0.56134-1.7213-1.256-3.372-2.1347-4.86" fill="#d1114d"/>
    <path d="m287.01 323.41c0.12533 1.804-1.236 3.264-3.0387 3.264-1.8027 0-3.3653-1.46-3.4893-3.264l-0.52133-7.5547c-0.124-1.804 1.2373-3.264 3.0387-3.264 1.804 0 3.3653 1.46 3.4893 3.264z" fill="#f26914"/>
    <path d="m68.871 322.27c-0.28667-0.172-4-0.108-6.2933-0.0507-3.8867 3.636-6.5427 8.2827-7.74 10.332 4.1467 0.31734 7.3747-0.936 8.6173-1.448 1.416-0.584 4.2493-3.1667 5.416-5.2493 1.1667-2.084 0.416-3.3347 0-3.584" fill="#ffb073"/>
    <path d="m62.556 352.88-1.172-4.9973c-0.35733-1.5267-1.884-2.7627-3.4107-2.7627h-6.5533c0.51467 2.9347 1.3627 6.38 2.7293 9.8453 0 0 0.04133 0.27467 0.176 0.67734h6.116c1.5253 0 2.4733-1.236 2.1147-2.7627" fill="#4f4f4f"/>
   </g>
  </g>
 </g>
</svg>
