<?xml version="1.0" encoding="UTF-8"?>
<svg width="68.075mm" height="26.345mm" version="1.1" viewBox="0 0 68.075 26.345" xmlns="http://www.w3.org/2000/svg" xmlns:cc="http://creativecommons.org/ns#" xmlns:dc="http://purl.org/dc/elements/1.1/" xmlns:rdf="http://www.w3.org/1999/02/22-rdf-syntax-ns#">
 <defs>
  <linearGradient id="linearGradient178" x2="1" gradientTransform="matrix(-9.3333e-7 20.59 -20.59 -9.3333e-7 474.79 148.52)" gradientUnits="userSpaceOnUse">
   <stop stop-color="#ffd52b" offset="0"/>
   <stop stop-color="#fb0" offset="1"/>
  </linearGradient>
 </defs>
 <metadata>
  <rdf:RDF>
   <cc:Work rdf:about="">
    <dc:format>image/svg+xml</dc:format>
    <dc:type rdf:resource="http://purl.org/dc/dcmitype/StillImage"/>
    <dc:title/>
   </cc:Work>
  </rdf:RDF>
 </metadata>
 <g transform="translate(-71.796 -134.99)">
  <g transform="matrix(.26458 0 0 .26458 -19.789 107.7)">
   <path d="m556.72 106.48s12.32 0.708 13.32 0.87467c1 0.16666 1.2773 1.556 0.33333 2.2773-0.944 0.72267-4.1107 3.2227-4.1107 3.2227z" fill="#ff8c00"/>
   <path d="m346.15 179.86c0 3.552 0.77867 7.552 5.3333 8.3293 4.556 0.77867 13.445 1.556 16.223 1.556h220.33c4.2227 0 10.445-3.556 13.223-8.3333 2.7773-4.7773 2.1107-8.556 2.1107-12.889 0-4.3333-4.6667-9.7773-4.6667-11.888v-14.889c0-2.2227-2.7267-6.2213-5.9173-9-3.1933-2.7773-27.527-24.333-34.527-26-7-1.6667-70.667-3.7787-78.779-3.556-8.1107 0.22266-14.444 3.8893-16 4.556-1.5547 0.66666-44.888 25.444-45.888 25.777-1 0.33333-26.779 4.6667-38.779 7.6667s-20.339 4.44-26.888 12.556c-5.112 6.3333-5.7787 18.119-5.7787 26.115" fill="#fb0"/>
   <path d="m354.28 151.19c-0.81066 0.772-1.596 1.6147-2.3533 2.5547-5.112 6.3333-5.78 18.119-5.78 26.115 0 3.552 0.77867 7.552 5.3333 8.3293 4.556 0.77733 13.445 1.556 16.223 1.556h220.33c4.2227 0 10.445-3.556 13.223-8.3333 2.7787-4.7787 2.1107-8.556 2.1107-12.889s-4.6667-9.7773-4.6667-11.888v-5.444z" fill="url(#linearGradient178)"/>
   <g>
    <path d="m495.86 134.16c0.79067-0.0547 1.0893-0.684 1.2147-1.1427 0.12533-0.45866 3.928-22.375 4.0533-23.125 0.12533-0.74933 0.52933-1.66-0.416-1.6573v-5e-3c-5.324 0.0107-10.316 0.0587-14.345 0.12134-2.3333 0.036-11.833 2-17.751 5.2507-5.916 3.2493-23.667 15.083-26.583 17.416-2.9173 2.3333-2.4173 6.4173 2.8333 6.4173 2.4733 0 26.335-1.592 50.993-3.2747" fill="#4f4f4f"/>
    <path d="m555.04 127.19c-1.3333-3.584-9.1867-15.896-14.417-17.333-4.2507-1.168-19.376-1.556-33.833-1.6147-0.624-3e-3 -0.916 0.48933-1 1.1973-0.0827 0.70934-1.5 22.084-1.4573 23.084 0.04 0.98667 0.88933 1.0013 0.912 1.0013 24.419-1.6747 47.039-3.2507 47.547-3.2507 1.6827 0 2.796-1.6147 2.2493-3.084" fill="#4f4f4f"/>
    <path d="m571.45 156.24c-13.9 0-25.167 11.267-25.167 25.167 0 2.9253 0.524 5.7227 1.4413 8.3333h40.309c2.3533 0 5.328-1.1067 7.9813-2.912 0.384-1.748 0.60134-3.5573 0.60134-5.4213 0-13.9-11.268-25.167-25.167-25.167" fill="#ff8c00"/>
    <path d="m415.18 189.74c0.916-2.6107 1.4427-5.408 1.4427-8.3333 0-13.9-11.268-25.167-25.167-25.167-13.9 0-25.167 11.267-25.167 25.167 0 2.9253 0.524 5.7227 1.4413 8.3333z" fill="#ff8c00"/>
    <path d="m412.79 181.41c0 11.781-9.552 21.333-21.333 21.333-11.783 0-21.333-9.552-21.333-21.333 0-11.783 9.5507-21.333 21.333-21.333 11.781 0 21.333 9.5507 21.333 21.333" fill="#404040"/>
    <path d="m406.03 181.41c0 8.052-6.528 14.58-14.58 14.58-8.0533 0-14.58-6.528-14.58-14.58 0-8.0533 6.5267-14.58 14.58-14.58 8.052 0 14.58 6.5267 14.58 14.58" fill="#efefef"/>
    <path d="m592.79 181.41c0 11.781-9.552 21.333-21.333 21.333-11.783 0-21.333-9.552-21.333-21.333 0-11.783 9.5507-21.333 21.333-21.333 11.781 0 21.333 9.5507 21.333 21.333" fill="#404040"/>
    <path d="m586.03 181.41c0 8.052-6.528 14.58-14.58 14.58-8.0533 0-14.58-6.528-14.58-14.58 0-8.0533 6.5267-14.58 14.58-14.58 8.052 0 14.58 6.5267 14.58 14.58" fill="#efefef"/>
    <path d="m557.79 143.29c-1.0493 5.3667-5.4133 10.679-10.467 16.829-1.7 2.0707-3.4573 4.212-5.2213 6.5067-7.536 9.816-8.336 14.635-8.4 15.877-0.08 1.4893-0.928 2.184-2.668 2.184h-33.753c-7e-3 -1.424-0.0573-3.316-0.12134-5.6973-0.152-5.6667-0.38266-14.228-0.20933-24.631 0.24533-14.679 4.1427-20.003 4.1827-20.053l0.0627-0.0827 4e-3 -0.10266c0.82534-16.575 3.812-26.075 4.112-27.712 15.329 0.40933 31.971 0.988 34.423 1.3573 4.3187 0.65333 7.4387 4.4213 13.529 12.865 5.8667 8.136 6.0813 14.701 4.5267 22.659m-131.15 41.397c-1.5933 0-1.7213-0.93066-1.7213-2.056v-9.3333c0-2.2867-0.39334-4.556-0.84667-7.184-0.636-3.6693-1.4253-8.2387-1.376-14.591 0.0813-10.671 5.3493-14.892 13.941-20.896 8.4733-5.9227 35.205-21.413 35.476-21.568 2.128-1.2387 6.148-2.7173 9.9427-3.04 0.38133-0.0333 1.2307-0.0493 2.524-0.0493 3.828 0 12.227 0.216 20.053 0.42133-0.35067 1.936-3.288 11.385-4.0987 27.597-0.53333 0.76133-4.02 6.268-4.256 20.359-0.17333 10.417 0.0573 18.989 0.20934 24.66 0.0653 2.376 0.11466 4.2653 0.12133 5.68zm113.19-77.58c-4.188-0.632-44.737-1.804-55.248-1.804-1.3307 0-2.1747 0.0173-2.5787 0.052-3.9 0.33067-8.0333 1.8533-10.224 3.1267-0.268 0.156-27.025 15.659-35.523 21.599-8.796 6.1493-14.144 10.66-14.225 21.437-0.0493 6.412 0.74534 11.013 1.3853 14.711 0.44933 2.596 0.83733 4.8387 0.83733 7.0693v9.3333c0 0.884 0 2.7227 2.388 2.7227h104.39c2.6307 0 3.264-1.532 3.332-2.816 0.0453-0.85067 0.65333-5.5933 8.2653-15.505 1.7547-2.2867 3.5107-4.424 5.208-6.4907 5.1093-6.22 9.524-11.592 10.604-17.124 1.2453-6.3733 2.0173-13.945-4.64-23.176-6.204-8.6027-9.3987-12.445-13.971-13.135" fill="#ff8c00"/>
    <path d="m371.58 144.3c0.52 0.0187 0.83467 0.132 1.2333 0.276 0.75467 0.27333 1.6947 0.61333 4.3907 0.61333 2.692 0 17.664-2.5293 22.188-3.304 19.201-3.2893 19.295-3.6133 19.355-3.828 0.176-0.61733-1.62-2.5933-4.0213-3.972-0.32 0.06-0.664 0.12267-1.0267 0.18934 2.428 1.1733 4.0093 2.952 4.344 3.4787-3.1947 0.856-36.875 6.7693-40.839 6.7693-2.5787 0-3.4573-0.31867-4.164-0.57334-0.436-0.15733-0.812-0.29333-1.436-0.316-0.58133-0.0173-1.8907 0.0973-3.3187 0.25067-1.148 0.332-2.2573 0.67867-3.3253 1.0547 2.184-0.27867 5.6173-0.688 6.62-0.63867" fill="#ff8c00"/>
    <path d="m420.45 135.27c0.916 0.66667 2.8747 0.54133 4.3747-0.33333 1.5-0.87467 39.167-24.5 39.667-24.792 0.5-0.29067 0.584-1.124 0.25067-1.5827-0.15067-0.20667-0.66133-0.54533-1.18-0.85733-0.0253 0.0107-0.0613 0.028-0.084 0.0373-1.5 0.644-41.839 23.701-45.611 25.643 0.69334 0.508 1.94 1.4173 2.5827 1.8853" fill="#4f4f4f"/>
    <path d="m353.59 180.3v-4.7773c0-2.2093-1.792-4-4-4h-3.1333c-0.24534 2.96-0.312 5.8333-0.312 8.336 0 1.4933 0.14266 3.0627 0.64 4.4413h2.8053c2.208 0 4-1.7907 4-4" fill="#4f4f4f"/>
    <path d="m348.32 166.83c0.23467-1.4613 1.556-9.0853 4.3893-11.864 2.8333-2.7773 13.223-7 14.111-6.6107 0.88933 0.38934-3 8.332-5.388 11.721-2.3893 3.3893-13.437 8.796-13.112 6.7533" fill="#efefef"/>
    <path d="m357.17 159.68c-0.41733 2.2973-1.952 4.16-3.428 4.16-1.4773 0-2.3333-1.8627-1.916-4.16 0.41867-2.2973 1.952-4.16 3.428-4.16 1.4773 0 2.3333 1.8627 1.916 4.16" fill="#ff8c00"/>
    <path d="m361.79 155.15c-0.26667 1.4653-1.2467 2.6547-2.188 2.6547-0.94267 0-1.4893-1.1893-1.2227-2.6547 0.268-1.4667 1.2467-2.6547 2.188-2.6547 0.94267 0 1.4893 1.188 1.2227 2.6547" fill="#e02b61"/>
    <path d="m592.79 145.08v7.1667c0 2.2093 1.7907 4 4 4h1.9173v-14.5c0-0.20267-0.0453-0.436-0.0893-0.66667h-1.828c-2.2093 0-4 1.7907-4 4" fill="#ff8c00"/>
    <path d="m592.79 132.74c-2.2373-1.9467-14.848-13.104-24.607-20.188-0.268 0.62533-0.52266 1.528-0.0867 2.132 0.72133 1 24.167 20.612 25.167 21.167 0.60267 0.33466 1.6227 0.26 2.3813-0.13867-0.85734-1.0507-1.8267-2.076-2.8547-2.972" fill="#4f4f4f"/>
    <path d="m491.29 140.22h-10.003c-1.1493 0-2.0813 0.932-2.0813 2.0827h14.167c0-1.1507-0.93334-2.0827-2.0827-2.0827" fill="#ffcb3d"/>
    <path d="m481.29 144.39h10.003c1.1493 0 2.0813-0.932 2.0813-2.0827h-14.167c0 1.1507 0.93334 2.0827 2.0827 2.0827" fill="#ff8c00"/>
    <path d="m551.29 140.22h-10.001c-1.1493 0-2.0827 0.932-2.0827 2.0827h14.167c0-1.1507-0.932-2.0827-2.0827-2.0827" fill="#ffcb3d"/>
    <path d="m541.29 144.39h10.001c1.1507 0 2.0827-0.932 2.0827-2.0827h-14.167c0 1.1507 0.93334 2.0827 2.0827 2.0827" fill="#ff8c00"/>
   </g>
  </g>
 </g>
</svg>
