<?xml version="1.0" encoding="UTF-8"?>
<svg width="68.402mm" height="27.12mm" version="1.1" viewBox="0 0 68.402 27.12" xmlns="http://www.w3.org/2000/svg" xmlns:cc="http://creativecommons.org/ns#" xmlns:dc="http://purl.org/dc/elements/1.1/" xmlns:rdf="http://www.w3.org/1999/02/22-rdf-syntax-ns#">
 <defs>
  <linearGradient id="linearGradient614" x2="1" gradientTransform="matrix(3.1106 37.555 -37.555 3.1106 179.27 505.81)" gradientUnits="userSpaceOnUse">
   <stop stop-color="#707070" offset="0"/>
   <stop stop-color="#616161" offset="1"/>
  </linearGradient>
 </defs>
 <metadata>
  <rdf:RDF>
   <cc:Work rdf:about="">
    <dc:format>image/svg+xml</dc:format>
    <dc:type rdf:resource="http://purl.org/dc/dcmitype/StillImage"/>
    <dc:title/>
   </cc:Work>
  </rdf:RDF>
 </metadata>
 <g transform="translate(248.89 -52.964)">
  <g transform="matrix(.26458 0 0 .26458 -262.67 -69.415)">
   <path d="m271.29 464.44s10.751 0.54133 13.251 0.792c2.5 0.24933 3.5827 0.58533 3.6667 1.292 0.0827 0.708-3.5 3.416-6.376 4.0413z" fill="#575757"/>
   <path d="m107.82 548.81h166.89c3.888 0 32.221-5.888 33.111-6.5547 0.88933-0.66666 2.8053-3.3613 2.8053-7.696v-10.332c0-1.6667-3.0827-5.5-3.0827-9.2507v-16.667c0-1.3333-5.3333-9.6667-8-13.251-2.6667-3.5827-21.417-19.916-28.667-21-7.2507-1.0827-73.751-2.5-87.333-0.58267-13.584 1.916-24.584 7.6667-34.667 13.667-10.084 6-25.833 15.249-27.917 15.749-2.0827 0.5-26.083 3.6667-39.416 6.3333s-22.251 6-23.917 7.7507c-1.6667 1.7507-1.972 3.0013-2.528 6.4453-0.55467 3.444-0.888 5.6667-1.444 6.944s-1.556 2-1.556 4.444v13.112c0 1.612 8.6667 9 11.945 9.5547 3.2773 0.556 31 1.3333 43.777 1.3333" fill="#616161"/>
   <path d="m52.479 522.58c-0.224 0.57067-0.38533 1.2653-0.38533 2.2347v13.112c0 1.612 8.6667 9 11.945 9.5547 3.276 0.556 31 1.3333 43.776 1.3333h166.89c3.8893 0 32.224-5.8867 33.112-6.5547 0.88934-0.66667 2.8053-3.3613 2.8053-7.6947v-10.333c0-1.6667-3.084-5.5-3.084-9.2493v-7.3267z" fill="url(#linearGradient614)"/>
   <g>
    <path d="m253.63 485.85-0.516 0.42133c3.188 3.8987 6.0507 8.296 5.412 14.04-0.49333 4.4453-5.9 9.0227-12.161 14.325-1.9587 1.6587-3.9853 3.3747-5.9667 5.1787-5.4907 4.996-8.828 11.996-9.9213 20.803l-0.0187 0.15067c-0.252 2.0187-1.2907 3.0427-3.0853 3.0427h-34.832c-0.32267-1.1613-1.752-6.7427-1.752-14.333 0-8.412 1.6627-25.396 3.3733-31.292 0.11467-1.0147 0.24667-2.2907 0.39333-3.704 0.38534-3.72 0.86534-8.3507 1.396-11.731 0.75334-4.7893 1.916-13.537 2.124-15.107 2.248-0.18 4.7387-0.348 7.228-0.45867l-0.0293-0.66533c-7.9213 0.352-15.861 1.284-15.941 1.2933l0.0787 0.66133c0.052-5e-3 3.444-0.404 7.984-0.776-0.25466 1.916-1.372 10.303-2.1027 14.949-0.53334 3.396-1.0147 8.036-1.4 11.764-0.14667 1.4107-0.27867 2.6867-0.38267 3.6427-1.7133 5.8867-3.388 22.969-3.388 31.423 0 7.336 1.3227 12.821 1.728 14.333h-61.7c-2.5707 0-3.376-1.2187-3.8427-3.188-0.48134-2.0307-2.2133-16.497-2.2133-23.756v-1.044c-8e-3 -6.6187-0.012-9.9427 2.9627-15.577 3.0813-5.8413 9.58-9.552 9.6453-9.5893l-0.32666-0.58c-0.27334 0.15333-6.7333 3.84-9.9093 9.8573-3.0507 5.78-3.0467 9.1613-3.0387 15.889v1.044c0 7.4693 1.732 21.8 2.232 23.909 0.45466 1.9227 1.3147 3.7013 4.4907 3.7013h97.223c1.5027 0 3.372-0.628 3.7467-3.6253l0.0187-0.152c1.0733-8.6453 4.34-15.507 9.7093-20.392 1.972-1.796 3.9933-3.508 5.9493-5.164 6.368-5.3933 11.869-10.052 12.392-14.76 0.668-6.0053-2.4347-10.717-5.5587-14.535" fill="#525252"/>
    <path d="m116.74 548.81c0.34133-1.648 0.52267-3.3573 0.52267-5.1093 0-13.869-11.243-25.111-25.111-25.111-13.869 0-25.112 11.241-25.112 25.111 0 1.3853 0.14133 2.7347 0.35733 4.06 8.5173 0.504 29.713 1.0493 40.421 1.0493z" fill="#4d4d4d"/>
    <path d="m287.5 546.75c0.12133-1.0027 0.20267-2.016 0.20267-3.0493 0-13.869-11.243-25.111-25.111-25.111-13.869 0-25.112 11.241-25.112 25.111 0 1.752 0.18267 3.4613 0.52267 5.1093h36.7c1.532 0 6.8547-0.91467 12.797-2.06" fill="#4d4d4d"/>
    <path d="m113.48 543.7c0 11.783-9.552 21.333-21.333 21.333s-21.333-9.5507-21.333-21.333 9.552-21.333 21.333-21.333 21.333 9.5507 21.333 21.333" fill="#404040"/>
    <path d="m106.73 543.7c0 8.052-6.528 14.581-14.58 14.581-8.0533 0-14.58-6.5293-14.58-14.581s6.5267-14.58 14.58-14.58c8.052 0 14.58 6.528 14.58 14.58" fill="#efefef"/>
    <path d="m283.93 543.7c0 11.783-9.552 21.333-21.333 21.333-11.781 0-21.333-9.5507-21.333-21.333s9.552-21.333 21.333-21.333c11.781 0 21.333 9.5507 21.333 21.333" fill="#404040"/>
    <path d="m277.17 543.7c0 8.052-6.528 14.581-14.58 14.581-8.0533 0-14.58-6.5293-14.58-14.581s6.5267-14.58 14.58-14.58c8.052 0 14.58 6.528 14.58 14.58" fill="#efefef"/>
    <path d="m189.29 496.54c0.74933-0.024 1.584-0.72667 2.0653-2.1427 0.48267-1.4173 2.9347-20.751 3.352-23.5 0.416-2.7427 0.40267-3.7453-1.1587-3.636-6.0507 0.46134-12.083 1.0813-17.508 1.8853-3.6533 0.54266-11.667 3.224-18.223 6.7787-6.556 3.5547-24.837 16.028-25.889 17.221-2.444 2.7787-0.888 5.112 3.556 5 2.0333-0.0493 27.097-0.8 53.805-1.6067" fill="#4d4d4d"/>
    <path d="m256.82 491.04c-2.556-6.4453-16.223-23-25.111-24.333-4.156-0.62534-16.384-0.69334-29.877 0.024-0.828 0.0467-1.9827 0.19466-2.1227 1.9187-0.14933 1.812-1.7507 20.5-1.9173 23.751-0.16667 3.2493 1.9173 3.828 1.9173 3.828 28.276-0.86 55.299-1.6907 55.888-1.7453 1.2227-0.10934 1.8093-1.964 1.2227-3.4427" fill="#4d4d4d"/>
    <path d="m112.84 500.98c2.0573-0.16667 4.4467-0.848 5.1467-1.992 0.41066-0.672 2.196-4.024 3.364-6.2267-0.16 0.0627-0.3 0.112-0.39867 0.136-0.10267 0.0253-0.27333 0.056-0.47867 0.096-1.152 2.1667-2.6893 5.048-3.056 5.6467-0.484 0.79333-2.432 1.496-4.6307 1.676-1.0987 0.088-14.737 2.7867-27.928 5.3947-11.316 2.2387-23.017 4.5533-23.736 4.604-1.0787 0.0773-3.8667 0.044-5.4267 0.02-0.056 0.20533-0.10667 0.43466-0.15867 0.664 0.82667 0.0147 2.0587 0.0307 3.2067 0.0307 0.98133 0 1.896-0.012 2.4267-0.0493 0.75867-0.0547 11.445-2.168 23.817-4.6147 12.559-2.484 26.792-5.3 27.852-5.3853" fill="#525252"/>
    <path d="m61.246 507.73c-1.2307 0.544-4.7507 5-5.208 7.916-0.45867 2.9173-0.04267 3.876 1.5 3.6253 1.5413-0.24933 7.9587-2.0827 10.083-3.3333 2.1253-1.2493 8.584-7.208 9.0427-8.208 0.45733-1-1.376-2.1253-2.7507-2.292-1.3747-0.16667-8.0413 0.25067-12.667 2.292" fill="#efefef"/>
    <path d="m289.15 490.98c3.0667 0.0733 10.021 0.0507 14.428 0.0267-1.428-2.24-2.9547-4.4853-4.0387-5.9427-1.684-2.2613-9.772-9.6-17.333-14.979-8.5267-0.29466-30.561-1.0173-31.279-0.66-0.888 0.444-0.55466 1.5547 1.2787 2.8333 1.8333 1.2787 22.444 15.279 26.167 16.945 3.7213 1.6667 6.1107 1.6653 10.777 1.776" fill="#4d4d4d"/>
    <path d="m294.62 511.56h12.917v-12.667h-4.4173c-1.1667 0-4.916 4.472-7.084 6.7787-2.1653 2.304-3.7493 5.888-1.416 5.888" fill="#ef3061"/>
   </g>
  </g>
 </g>
</svg>
