<?xml version="1.0" encoding="UTF-8"?>
<svg width="63.655mm" height="28mm" version="1.1" viewBox="0 0 63.655 28" xmlns="http://www.w3.org/2000/svg" xmlns:cc="http://creativecommons.org/ns#" xmlns:dc="http://purl.org/dc/elements/1.1/" xmlns:rdf="http://www.w3.org/1999/02/22-rdf-syntax-ns#">
 <defs>
  <linearGradient id="linearGradient70" x2="1" gradientTransform="matrix(-8e-7 18.987 -18.987 -8e-7 172.88 149.87)" gradientUnits="userSpaceOnUse">
   <stop stop-color="#ef4c76" offset="0"/>
   <stop stop-color="#ef3061" offset="1"/>
  </linearGradient>
 </defs>
 <metadata>
  <rdf:RDF>
   <cc:Work rdf:about="">
    <dc:format>image/svg+xml</dc:format>
    <dc:type rdf:resource="http://purl.org/dc/dcmitype/StillImage"/>
    <dc:title/>
   </cc:Work>
  </rdf:RDF>
 </metadata>
 <g transform="translate(-74.006 -134.17)">
  <g transform="matrix(.26458 0 0 .26458 60.092 108.52)">
   <path d="m59.396 186.97h225.11c1.556 0 8.6667-4.2227 8.6667-8v-18.444c0-1.6667-2.7773-4.556-2.7773-5.8893v-26.223c0-1-24.001-28.777-25-29-1-0.22133-37.779-2.888-68-2.444-30.223 0.444-41.779 3.7773-49.333 6.6667-7.556 2.8893-43.445 25.111-45.333 25.333-1.8893 0.22267-17.444 3.1107-23.889 4.6667-6.444 1.556-19.667 5.6667-22.221 10.444-2.556 4.7787-2.6947 20.861-2.6947 26.528 0 5.6667 0.13867 8.528-0.584 9.6947-0.72133 1.1667-1.2493 2.6387 0 4.0973 1.2507 1.4587 3.6533 2.5693 6.056 2.5693" fill="#ef3061"/>
   <path d="m54.863 151.19c-0.87333 6.684-0.94 15.516-0.94 19.415 0 5.6667 0.14 8.5293-0.58267 9.696-0.72267 1.1653-1.2507 2.6387 0 4.096 1.2507 1.4587 3.6533 2.5707 6.056 2.5707h225.11c1.5547 0 8.6667-4.2227 8.6667-8v-18.445c0-1.6667-2.7773-4.556-2.7773-5.888v-3.444z" fill="url(#linearGradient70)"/>
   <g>
    <path d="m110.73 181.41c0-13.993-11.343-25.333-25.333-25.333-13.991 0-25.333 11.34-25.333 25.333 0 1.9107 0.22933 3.7667 0.63067 5.556h49.405c0.40134-1.7893 0.63067-3.6453 0.63067-5.556" fill="#ab2246"/>
    <path d="m290.73 181.41c0-13.993-11.343-25.333-25.333-25.333-13.991 0-25.333 11.34-25.333 25.333 0 1.9107 0.22934 3.7667 0.63067 5.556h43.813c0.94534 0 3.9307-1.5587 6.136-3.6267 0.0507-0.63733 0.0867-1.2787 0.0867-1.9293" fill="#ab2246"/>
    <path d="m106.73 181.41c0 11.781-9.552 21.333-21.333 21.333s-21.333-9.552-21.333-21.333c0-11.783 9.552-21.333 21.333-21.333s21.333 9.5507 21.333 21.333" fill="#404040"/>
    <path d="m99.975 181.41c0 8.052-6.528 14.58-14.58 14.58-8.0533 0-14.58-6.528-14.58-14.58 0-8.0533 6.5267-14.58 14.58-14.58 8.052 0 14.58 6.5267 14.58 14.58" fill="#efefef"/>
    <path d="m286.73 181.41c0 11.781-9.552 21.333-21.333 21.333-11.781 0-21.333-9.552-21.333-21.333 0-11.783 9.552-21.333 21.333-21.333 11.781 0 21.333 9.5507 21.333 21.333" fill="#404040"/>
    <path d="m279.98 181.41c0 8.052-6.528 14.58-14.58 14.58-8.0533 0-14.58-6.528-14.58-14.58 0-8.0533 6.5267-14.58 14.58-14.58 8.052 0 14.58 6.5267 14.58 14.58" fill="#efefef"/>
    <path d="m185.39 128.71c1.544-0.0547 2.6213-1.1893 2.788-2.7307 0.16667-1.5413 3.1667-17.069 3.6107-19.792 0.44266-2.7067 0.38266-3.7613-0.708-3.7413-23.788 0.74533-34.151 3.508-41.109 6.168-3.7027 1.416-16.6 8.9453-26.663 14.847-2.8973 1.6987-3.1307 7.144 1.8693 7.144 2.8707 0 33.341-0.95334 60.212-1.8947" fill="#4f4f4f"/>
    <path d="m242.23 103.27c-11.003-0.53733-24.671-1.02-37.784-1.02-0.428 0-0.84267 8e-3 -1.2707 9e-3 -0.892 0.0413-1.42 1.4947-1.42 3.096 0 1.6253-0.87466 18.333-0.916 19.792-0.0427 1.4573 0.748 2.98 2.124 2.9293 12.067-0.452 21.313-0.84267 23.543-1.0427 7.5827-0.67867 10.5-2.4 16.111-5.7333 5.612-3.3333 10.056-6.3333 10.167-8.3333 0.112-2-5.66-9.4693-10.553-9.6973" fill="#4f4f4f"/>
   </g>
   <g fill="#c42750">
    <path d="m191.81 177.97c-0.36533-1.472-0.68-2.7427-0.748-3.5893-0.21733-2.704 1.648-25.841 3.028-40.581 0.96267-10.295 3.0813-26.059 4.164-33.889 13.544-0.15733 41.708 0.48667 47.151 1.272 5.4973 0.792 18.492 17.409 18.995 21.873 0.37467 3.332-3.4253 14.621-5.94 22.092-0.78666 2.3347-1.464 4.3507-1.8813 5.7187-0.964 3.164-3.4787 4.8013-6.3893 6.6987-2.2747 1.4827-4.852 3.1627-7.0493 5.8533-4.636 5.6787-5.8173 11.849-6.3853 14.815l-0.128 0.66533c-0.45867 2.296-2.0973 3.412-5.0067 3.412h-38.828c-0.29866-1.5747-0.66266-3.052-0.98133-4.34m-72.495 4.34c-0.152-0.18933-0.35067-0.316-0.60534-0.376-0.97066-0.22267-2.4373-0.55867-4.208-9.9773-1.8173-9.668-2.3947-27.537-0.44533-36.983 1.9307-9.3573 7.1307-12.789 10.927-15.295 0.40533-0.268 0.79333-0.524 1.1587-0.77466 3.6387-2.5 15.648-9.832 27.36-13.681 9.1013-2.9893 23.144-4.76 41.737-5.26 0.708-0.01867 1.4933-0.03333 2.34-0.04667-1.088 7.872-3.1933 23.557-4.1533 33.82-1.3813 14.764-3.248 37.957-3.028 40.697 0.072 0.9 0.39333 2.196 0.76533 3.696 0.308 1.244 0.65867 2.6653 0.95067 4.18zm73.593 0.66667h38.711c3.232 0 5.136-1.328 5.66-3.9493l0.13067-0.66933c0.6-3.136 1.716-8.9707 6.2453-14.517 2.1307-2.6107 4.6627-4.26 6.8973-5.7173 3.02-1.968 5.628-3.668 6.6627-7.064 0.41467-1.3587 1.092-3.3693 1.8747-5.7 2.6867-7.9747 6.3627-18.9 5.972-22.379-0.53067-4.7133-13.696-21.613-19.561-22.459-5.4493-0.78533-33.544-1.436-47.155-1.2813 0.12533-0.89733 0.23333-1.6667 0.32133-2.2933-0.22533 0.0027-0.45066 0.0053-0.67466 8e-3 -0.0893 0.632-0.19734 1.3987-0.32134 2.2933-0.88933 0.012-1.7107 0.028-2.4493 0.048-18.659 0.50267-32.765 2.284-41.929 5.2947-11.785 3.872-23.868 11.248-27.529 13.764-0.36133 0.24934-0.74533 0.50267-1.148 0.76667-3.892 2.5707-9.2253 6.0907-11.212 15.719-1.964 9.5173-1.3853 27.511 0.444 37.24 1.852 9.8467 3.5053 10.225 4.752 10.512 0.6 0.13866 0.56 1.9507 0.51866 3.8693-3e-3 0.156-4e-3 0.33867-7e-3 0.50133h0.66666c4e-3 -0.15866 4e-3 -0.33466 7e-3 -0.48666 0.032-1.5 0.0587-2.7027-0.15733-3.5h72.603c0.228 1.288 0.39067 2.632 0.45467 3.9867h0.66933c-0.0627-1.3573-0.22267-2.7-0.44533-3.9867"/>
    <path d="m60.597 142.41c0.80133 0.328 1.5627 0.63867 2.4627 0.63867 0.15733 0 0.32-9e-3 0.488-0.0293 1.712-0.21466 11.408-2.1813 19.963-3.9173 4.8013-0.97467 9.3373-1.8947 11.725-2.3547 5.0533-0.97333 8.144-6.08 9.416-8.6787-0.40667 0.216-0.76 0.39866-1.048 0.53866-1.432 2.624-4.268 6.6707-8.4933 7.4853-2.392 0.46-6.9293 1.3813-11.733 2.356-8.5427 1.7333-18.225 3.6973-19.912 3.908-0.94133 0.11733-1.72-0.19734-2.616-0.564-0.46267-0.18934-0.95067-0.38134-1.4827-0.52667-0.24267 0.17333-0.46933 0.35067-0.688 0.528 0.7 0.128 1.3173 0.36933 1.9187 0.616"/>
    <path d="m183.67 140.04v-1.9c0-0.64933-0.52667-1.1747-1.1747-1.1747h-9.2773c-0.64933 0-1.1747 0.52534-1.1747 1.1747v1.9z"/>
   </g>
   <g>
    <path d="m172.05 140.04v1.9c0 0.64933 0.528 1.1747 1.176 1.1747h9.276c0.64933 0 1.176-0.52534 1.176-1.1747v-1.9z" fill="#ab2246"/>
    <path d="m252.79 140.04v-1.9c0-0.64933-0.52667-1.1747-1.1747-1.1747h-9.2773c-0.64933 0-1.1747 0.52534-1.1747 1.1747v1.9z" fill="#c42750"/>
    <path d="m241.16 140.04v1.9c0 0.64933 0.528 1.1747 1.176 1.1747h9.276c0.64933 0 1.176-0.52534 1.176-1.1747v-1.9z" fill="#ab2246"/>
    <path d="m59.131 145.27c-0.95867 0.104-2.4787 0.97867-3.4933 1.628-0.99733 4.0427-1.42 10.317-1.592 15.671 0.908-0.20134 2.052-0.63467 3.1267-1.5907 2.2507-2 5.376-11.124 5.376-12.916s-1.876-2.9587-3.4173-2.792" fill="#ffb073"/>
    <path d="m290.4 131.19h-2.556c-2.2093 0-4 1.7907-4 4v9.8893h6.556z" fill="#ffb073"/>
    <path d="m287.84 154.19h2.556v-9.1107h-6.556v5.1107c0 2.2093 1.7907 4 4 4" fill="#ff7445"/>
    <path d="m267.35 102.44c-1.6787 1.436-1.876 3.96-0.44267 5.6387l14.636 17.209c1.4347 1.68 3.96 1.876 5.64 0.44267l0.75334-0.644c-4.7507-5.8747-15.153-17.913-19.997-23.149z" fill="#4f4f4f"/>
   </g>
  </g>
 </g>
</svg>
